<?xml version="1.0" encoding="UTF-8"?>
<svg width="992px" height="229px" viewBox="0 0 992 229" version="1.1" xmlns="http://www.w3.org/2000/svg" xmlns:xlink="http://www.w3.org/1999/xlink">
    <!-- Generator: Sketch 46.2 (44496) - http://www.bohemiancoding.com/sketch -->
    <title>logo__white</title>
    <desc>Created with Sketch.</desc>
    <defs></defs>
    <g id="Page-1" stroke="none" stroke-width="1" fill="none" fill-rule="evenodd">
        <g id="logo__white" fill-rule="nonzero" fill="#FFFFFF">
            <path d="M43,1 C52.66,1.02 61.42,3.03 70,7.51 C88.61,17.23 99.64,39.78 110.26,57 C110.26,57 146.09,115 146.09,115 C146.09,115 174,160 174,160 C174,160 174,69 174,69 C174,55.63 175.56,33.95 170.74,22 C165.36,8.65 158.06,6.75 153,1 C153,1 192,1 192,1 C214.91,1.04 221.76,18.76 222,39 C222,39 222,156 222,156 C222,156 222,179 222,179 C222,194.02 220.96,205.47 231.52,217.91 C236.93,224.29 240.57,224.25 246,228 C224.49,228 200.87,229.7 180,224.47 C174.05,222.98 164.431227,218.974112 158.525723,215.240214 C153.442424,211.893297 138.42,197.84 133.35,191 C133.35,191 125.95,179 125.95,179 C125.95,179 89.17,119 89.17,119 C89.17,119 77.14,99 77.14,99 C74.51,94.71 73.5879487,92.916291 70,87.6883488 C67.7285435,84.5514663 65,81 65,81 C65,81 65,163 65,163 C65,175.94 63.68,195.31 68.45,207 C70.72,212.55 74.27,217.61 79.01,221.32 C82.19,223.8 85.77,224.68 88,228 C88,228 50,228 50,228 C44.42,227.99 38.07,227.57 33,225 C19.41,218.1 17.16,198.56 17,185 C17,185 17,56 17,56 C17,41.05 19.38,19.38 9.25,7.33 C6.79,4.39 3.12,3.06 0,1 C0,1 43,1 43,1 Z M323.11,1.59 C325.65,0.59 340.25,1 344,1 C368.26,1 389.65,-2.66 405.56,20 C410.98,27.72 420.27,53.67 424.4,64 C424.4,64 459.94,155 459.94,155 C459.94,155 477.75,200 477.75,200 C479.67,203.53 485.36,211.02 488.17,213.91 C495.23,221.18 500.38,222.3 508,227 C508,227 484,227 484,227 C466.56,227 447.69,229.93 433,218.47 C423.9,211.38 421.6,202.08 417.33,192 C412.82,181.33 414.66,178.02 403,178 C403,178 318,178 318,178 C315.88,191.53 301.3,207.39 314.1,219.82 C318.38,223.97 321.46,224.2 326,227 C326,227 273,227 273,227 C260.42,226.84 255.73,221.22 256.01,209 C256.31,196.37 264.83,182.58 269.55,171 C269.55,171 285.63,134.42 285.63,134.42 C285.63,134.42 309.42,79 309.42,79 C309.42,79 325.42,42 325.42,42 C325.42,42 332.61,24 332.61,24 C334.67,14.32 329.21,6.72 320,4 C321.19,2.82 321.38,2.28 323.11,1.59 Z M501.54,1.54 C503.5,0.63 517.81,1 521,1 C521,1 580,1 580,1 C601.5,1 636.07,-0.5 656,3.46 C682.93,8.82 707.03,25.46 723.57,47 C758.37,92.33 750.71,159.68 709.01,197.83 C686.68,218.26 658.01,227.95 628,228 C628,228 522,228 522,228 C522,228 522,40 522,40 C521.85,27.88 517.6,15.21 508,7.37 C505.48,5.31 503.2,3.6 500,3 C500.49,2.46 500.26,2.14 501.54,1.54 Z M846,1 C856.62,1 865.87,0.34 876,4.58 C892.63,11.55 896.61,22.8 902.86,38 C902.86,38 918.2,77 918.2,77 C920.79,83.59 927.018558,99.6225575 928.705468,105.666526 C930.927251,110.082137 931.69,111.41 933.13,115 C933.13,115 940.06,133 940.06,133 C940.06,133 958.94,181 958.94,181 C958.94,181 965.78,198 965.78,198 C969.7,206.16 973.12,210.74 980,216.71 C983.84,220.04 989.56,222.8 992,227 C992,227 958,227 958,227 C944.57,227 934.58,227.74 923,219.24 C912.34,211.42 911.51,204.42 906.72,193 C901.06,179.53 902.64,178.02 892,178 C892,178 807,178 807,178 C804.9,191.39 790.53,206.19 802.21,218.91 C806.09,223.13 809.74,223.9 814,227 C814,227 773,227 773,227 C767.84,227 757.36,227.6 753,225.57 C745.74,222.18 744.85,216.12 745.01,209 C745.2,200.76 748.54,194.4 751.55,187 C751.55,187 763.69,159 763.69,159 C763.69,159 802.86,68 802.86,68 C802.86,68 817.77,34 817.77,34 C820.46,28.08 823.77,21.5 821.22,15 C817.54,5.64 812.13,6.47 806,1 C806,1 846,1 846,1 Z M882,16 C882,16 880,22 880,22 C881.37,30.59 874.27,43.3 867.82,48.83 C865.23,51.05 863.15,51.91 860,53 C859.7,46.09 861.69,46.66 862.67,41 C863.49,36.26 862.09,33.81 862.04,31 C862,27.99 864.68,21.88 857.98,20.33 C854.99,19.64 850.2,21.43 847,22 C847,22 848,24 848,24 C848,24 839,22 839,22 C840.85,25.68 842.58,27.65 847,27.72 C849.36,27.77 854.49,26.15 855.67,29.28 C856.43,31.32 853.96,33.56 852.99,35.17 C851.48,37.66 850.87,40.09 851.23,43 C851.79,47.59 854.77,50.11 853.78,54 C852.07,60.72 842.71,64.08 838.18,68.33 C833.65,72.58 827.18,84.05 825,90 C832.13,86.06 830.43,85.38 835.22,80.58 C837.93,77.86 843.11,73.2 847,72.69 C850.56,72.22 855.1,74.89 852.96,78.91 C849,86.4 828.15,86.86 828.09,101 C828.08,102.67 828.35,104.36 828.99,105.91 C833.29,116.3 845.43,113.01 853,117 C844.85,118.98 841.67,117 834,115 C842.44,125.72 853.46,125.47 865,129 C855.17,131.39 845.95,128.59 838,122.47 C831.91,117.78 826.05,109.11 817.04,112.6 C809.63,115.47 809.88,126.06 813.33,131.82 C817.28,138.42 831.8,143.83 839,141 C835.18,139.19 829.75,136.94 827.15,133.48 C824.16,129.51 826.1,125.96 831,125.99 C835.17,126.02 846.96,132.11 852,133.95 C863.26,138.04 871.56,137.98 883,135 C882.86,133.35 882.93,131.87 881.98,130.39 C880.1,127.48 871.42,124.92 868,124 C873.12,117.42 881.37,114.15 880.85,106 C880.76,104.46 880.4,102.74 879.26,101.6 C876.06,98.4 870.87,102.01 868,103.87 C861.75,107.95 853.64,112.07 847.74,104.79 C844.76,101.12 845.79,98.43 849.11,95.53 C853.19,91.96 860.99,89.65 865.75,82.91 C869.49,77.63 869.49,67.23 871.72,60 C871.72,60 880.76,40 880.76,40 C884.18,30.49 884,25.76 884,16 C884,16 882,16 882,16 Z M638,178.54 C643.47,177.55 651.1,174.94 656,172.37 C664.18,168.08 671.88,161.13 677.68,154 C681.91,148.79 685.25,141.38 687.33,135 C701.13,92.7 671.01,49.21 626,49 C626,49 574,49 574,49 C574,49 574,180 574,180 C589.9,180 624.14,181.06 638,178.54 Z M366,61 C366,61 354.01,91 354.01,91 C354.01,91 344.99,114 344.99,114 C344.99,114 336,136 336,136 C336,136 358,135 358,135 C358,135 396,135 396,135 C396,135 376.39,83 376.39,83 C376.39,83 368,61 368,61 C368,61 366,61 366,61 Z M875,121 C875,121 875,124 875,124 C875,124 884,126.58 884,126.58 C885.74,127.2 891.25,129.08 892.13,130.5 C894.26,133.93 888.49,137.22 886,138.19 C879.28,140.78 872.01,140.14 865,140.01 C860,139.92 855.91,139.37 853,144 C858.88,145.59 864.05,147.33 867,153 C867,153 858,157.06 858,157.06 C853.95,158.25 851.02,157.87 847,158.04 C835.38,158.53 825.03,158.17 814,153.69 C803.11,149.26 801.49,146.34 793,142 C794.74,150.53 801.5,155.23 809,158.69 C823.27,165.27 843.56,166.67 859,164.42 C864.82,163.57 878.44,160.33 881.39,154.88 C885.35,147.57 875.63,146.03 871,144 C880.43,143.19 894.64,143.37 903,139.64 C907.02,137.84 912.89,133.17 908.53,128.57 C903.46,123.22 893.32,127.66 884,121 C889.35,119.9 895.55,118.25 890,112 C884.55,118.64 883,118.61 875,121 Z" id="Selection-#1"></path>
        </g>
    </g>
</svg>