<?xml version="1.0" encoding="UTF-8"?>
<svg width="256px" height="47px" viewBox="0 0 256 47" version="1.1" xmlns="http://www.w3.org/2000/svg" xmlns:xlink="http://www.w3.org/1999/xlink">
    <!-- Generator: Sketch 46.2 (44496) - http://www.bohemiancoding.com/sketch -->
    <title>FaridaAdventuresWhitepdf2</title>
    <desc>Created with Sketch.</desc>
    <defs></defs>
    <g id="Page-1" stroke="none" stroke-width="1" fill="none" fill-rule="evenodd">
        <g id="FaridaAdventuresWhitepdf2">
            <polygon id="Fill-1" fill="#FFFFFE" points="0.06 0.228 255.118 0.228 255.118 46.94 0.06 46.94"></polygon>
            <g id="Group-72" transform="translate(3.000000, 5.000000)">
                <polygon id="Fill-3" fill="#1A1919" points="79.716 21.754 247.028 21.754 247.028 22.436 79.716 22.436"></polygon>
                <path d="M16.759,2.913 C16.686,3.133 16.515,3.435 16.126,3.627 C15.738,3.817 15.153,3.847 15.153,3.847 C14.837,4.478 14.91,6.258 14.983,7.028 C15.055,7.795 15.347,9.029 15.275,9.744 C15.202,10.456 14.983,11.168 15.202,11.801 C15.421,12.431 15.569,13.145 15.639,13.472 C15.713,13.802 15.883,14.515 15.883,14.515 C16.225,14.733 16.686,15.473 16.686,15.473 C16.686,15.036 16.832,12.979 16.905,12.431 C16.979,11.883 17.367,11.389 17.512,11.223 C17.659,11.059 17.586,11.059 17.586,10.813 C17.586,10.566 17.707,10.428 17.707,10.428 C17.732,10.153 18.292,9.193 18.292,9.193 C18.097,7.821 18.851,7.411 18.851,7.411 C19.605,6.122 21.114,6.205 21.114,6.205 C24.033,6.753 24.862,10.127 24.885,11.059 C24.91,11.991 24.204,13.061 24.447,13.117 C24.69,13.171 24.568,14.405 25.201,15.036 C25.834,15.667 25.543,16.708 26.029,17.751 C26.516,18.793 26.271,20.191 27.246,19.891 C28.219,19.59 29.824,18.739 29.972,18.546 C30.116,18.355 30.409,18.134 30.554,18.054 C30.7,17.972 31.527,17.916 31.819,18.054 C32.113,18.188 32.866,18.438 33.28,18.382 C33.692,18.327 33.985,18.602 33.985,18.602 C33.985,18.602 33.498,20.383 34.058,18.572 C34.618,16.765 30.967,12.515 30.967,12.515 C24.935,5.656 17.001,2.42 17.001,2.42 C17.027,2.721 16.759,2.913 16.759,2.913 Z M17.488,0.473 C17.732,0.473 25.372,0.253 28.098,0.088 C30.822,-0.075 41.04,2.996 45.956,3.326 C50.87,3.655 55.688,-1.281 58.899,0.692 C62.11,2.669 61.673,6.07 66.101,6.177 C70.528,6.286 69.166,11.168 69.41,12.759 C69.652,14.349 70.14,15.117 71.356,15.503 C72.573,15.886 72.961,16.49 72.961,18.025 C72.961,19.559 73.983,20.057 73.983,20.057 C73.837,20.713 73.206,21.371 72.427,21.864 C71.648,22.358 70.09,22.906 68.632,23.291 C67.172,23.677 65.03,23.291 62.744,23.402 C60.456,23.51 57.878,25.65 56.465,26.035 C55.055,26.418 53.935,25.759 52.914,25.045 C51.892,24.332 50.918,24.003 49.847,24.664 C48.777,25.319 47.562,25.319 47.562,25.319 C45.418,25.155 45.079,24.389 45.079,24.389 C45.079,24.389 44.689,23.785 43.474,22.469 C42.257,21.152 38.365,22.193 36.013,22.085 C35.289,22.052 34.683,20.731 34.536,20.694 C34.391,20.657 34.146,20.842 34.146,20.842 C34.844,21.043 34.196,21.317 34.196,21.317 C33.92,21.245 32.67,21.463 32.088,21.443 C31.502,21.427 30.434,20.967 30.206,20.842 C29.979,20.713 29.8,20.694 29.248,20.951 C28.698,21.207 26.41,22.615 26.41,22.615 C25.549,25.887 29.751,29.051 29.751,29.051 C28.519,28.812 28.713,29.508 26.573,30.494 C24.432,31.482 22.971,30.879 22.971,30.879 C21.463,30.057 21.496,29.161 21.496,29.161 C20.132,30.221 22.89,31.739 21.366,30.99 C21.355,30.983 21.344,30.98 21.335,30.971 C19.837,30.193 19.598,26.73 19.598,26.73 C19.209,27.422 19.548,28.52 19.548,28.52 C17.051,26.4 20.765,22.287 18.998,23.93 C18.992,23.936 18.987,23.94 18.981,23.944 C17.216,25.577 14.989,25.85 14.617,25.85 C14.245,25.85 13.775,26.07 12.105,27.369 C10.433,28.667 11.325,31.482 11.325,31.482 L11.261,31.501 C10.337,29.142 4.107,27.678 4.107,27.678 C4.294,26.832 5.193,25.376 5.778,24.332 C6.362,23.291 8.908,20.768 8.957,20.64 C9.005,20.513 8.94,21.427 8.974,19.597 C9.005,17.77 9.428,17.185 9.54,17.02 C9.654,16.855 10.254,16.636 10.726,16.617 C11.195,16.598 12.299,16.929 12.412,16.872 C12.526,16.817 12.753,16.745 12.979,16.745 C13.207,16.745 13.434,16.765 13.531,16.546 C13.629,16.324 13.336,15.574 13.159,15.027 C12.979,14.479 12.915,13.454 12.881,12.778 C12.849,12.102 12.606,11.734 12.46,11.242 C12.315,10.748 12.331,10.328 12.331,10.033 C12.331,9.744 12.429,8.774 12.493,8.354 C12.559,7.931 12.51,7.659 12.655,7.107 C12.801,6.562 12.671,6.396 12.671,6.396 C12.46,6.07 12.606,5.993 12.639,5.885 C12.671,5.773 13.012,5.372 13.239,4.825 C13.466,4.275 13.336,3.727 13.32,3.472 C13.304,3.215 13.417,3.125 13.499,3.104 C13.58,3.087 13.678,3.104 13.807,3.051 C13.937,2.996 13.92,2.942 14.018,2.812 C14.116,2.686 14.569,2.062 14.764,1.808 C14.958,1.549 15.607,1.296 15.607,1.296 C15.866,1.24 16.369,1.078 16.58,0.967 C16.792,0.856 17.1,0.821 17.1,0.821 C17.1,0.821 17.245,0.473 17.488,0.473 L17.488,0.473 Z" id="Fill-5" fill="#B51F6A"></path>
                <path d="M37.127,4.793 C36.938,4.793 36.388,4.869 35.977,5.982 C35.565,7.099 35.272,9.133 35.272,9.133 C35.55,9.077 36.56,8.884 37.361,8.905 C38.163,8.923 38.19,9.749 38.136,9.998 C38.081,10.249 37.747,10.17 37.747,10.17 C37.175,9.978 35.081,10.113 35.081,10.113 C35.076,10.69 34.701,13.437 34.282,15.05 C33.864,16.662 32.911,18.659 31.648,19.794 C30.384,20.928 28.566,20.984 27.467,20.541 C26.366,20.101 26.056,19.082 26.095,18.526 C26.133,17.97 26.403,18.392 26.403,18.392 C29.056,20.813 31.105,19.082 32.1,17.373 C33.094,15.667 33.242,10.054 33.242,10.054 C32.074,9.941 32.053,8.998 32.053,8.998 L32.119,8.963 C32.548,9.309 33.165,9.191 33.165,9.191 C33.204,7.422 33.651,5.966 34.129,5.196 C34.475,4.637 35.407,3.832 36.266,3.698 C37.123,3.563 37.892,3.853 38.228,4.023 C38.566,4.197 38.938,4.698 38.854,5.103 C38.771,5.504 38.637,5.791 38.225,5.906 C37.812,6.021 37.634,6.003 37.634,6.003 L37.561,5.851 C38.228,4.771 37.127,4.793 37.127,4.793" id="Fill-6" fill="#FFFFFE"></path>
                <path d="M51.089,13.706 C50.806,15.029 50.891,16.088 51.104,17.433 C51.317,18.775 52.135,19.332 53.082,19.428 C54.027,19.523 54.792,18.582 54.792,18.582 C55.208,19.313 56.172,19.428 56.172,19.428 C57.776,19.544 58.63,17.335 58.63,17.335 C58.652,18.508 59.789,19.523 60.706,19.468 C61.623,19.408 62.141,18.7 62.141,18.7 C62.561,19.294 63.699,19.717 64.562,19.219 C65.424,18.718 66.099,16.855 66.099,16.855 C66.154,17.295 66.371,18.43 66.923,18.893 C67.475,19.351 68.671,19.774 69.633,18.87 C70.593,17.97 70.119,17.161 70.119,17.161 C69.668,18.756 68.024,18.274 67.695,17.316 C67.367,16.355 67.472,14.165 67.672,12.706 C67.872,11.248 68.532,9.69 68.532,9.69 C68.341,9.517 68.014,9.402 68.014,9.402 C67.092,8.979 66.687,10.283 66.687,10.283 C66.049,9.825 64.977,10.009 64.511,10.283 C63.026,11.17 62.382,12.438 61.861,14.341 C61.338,16.241 61.905,17.988 61.905,17.988 C60.781,18.565 60.176,17.681 59.978,16.566 C59.78,15.453 60.12,12.589 60.291,11.669 C60.465,10.747 60.688,8.345 60.317,6.559 C59.948,4.771 58.706,4.659 58.247,4.678 C57.786,4.698 57.863,5.024 57.863,5.024 C59.175,5.966 59.045,10.151 59.045,10.151 C58.649,9.902 57.931,9.864 57.133,10.093 C56.334,10.325 55.382,11.189 54.622,13.359 C53.86,15.529 54.472,17.892 54.472,17.892 C53.63,18.582 52.807,18.066 52.459,16.934 C52.112,15.8 52.617,14.108 52.837,13.592 C53.059,13.071 53.682,11.707 53.165,10.44 C52.646,9.171 51.501,9.48 51.501,9.48 C51.751,10.17 51.373,12.38 51.089,13.706" id="Fill-7" fill="#FFFFFE"></path>
                <path d="M53.188,5.317 C52.715,4.914 52.105,5.158 51.826,5.866 C51.546,6.571 51.703,7.477 52.176,7.882 C52.65,8.286 53.261,8.045 53.54,7.336 C53.82,6.629 53.662,5.725 53.188,5.317" id="Fill-8" fill="#FFFFFE"></path>
                <path d="M39.572,10.147 C39.212,10.321 38.074,10.897 37.384,12.529 C36.697,14.163 36.608,15.604 36.608,15.604 C36.464,16.831 36.85,18.466 37.337,18.965 C37.824,19.463 38.799,19.713 39.582,19.178 C40.364,18.639 41.058,16.871 41.058,16.871 C41.127,17.389 41.683,19.156 42.632,19.349 C43.583,19.542 44.282,19.023 44.282,19.023 C45.334,19.733 45.772,18.772 46.045,18.217 C46.315,17.658 46.637,15.545 46.849,14.297 C47.061,13.049 47.638,11.434 47.854,11.128 C48.073,10.818 48.399,10.553 48.783,10.818 C49.167,11.087 49.109,12.069 49.109,12.069 C49.097,13.068 48.572,13.588 48.572,13.588 C50.76,14.334 50.965,11.453 50.498,10.38 C50.032,9.304 49.082,9.29 48.737,9.361 C47.271,9.666 46.526,12.297 46.526,12.297 C46.177,9.782 45.08,9.592 45.08,9.592 C44.447,9.304 43.945,9.803 43.945,9.803 C44.947,10.264 45.246,12.28 45.191,13.509 C45.164,14.101 44.729,16.64 44.553,17.311 C44.377,17.984 43.929,18.772 43.121,18.024 C42.31,17.275 42.385,14.843 42.432,14.41 C42.791,11.053 43.489,9.686 43.489,9.686 C43.242,9.381 42.82,9.304 42.82,9.304 C42.019,9.131 41.639,10.264 41.639,10.264 C41.069,9.782 39.932,9.977 39.572,10.147" id="Fill-9" fill="#FFFFFE"></path>
                <path d="M38.85,12.455 C37.963,14.874 38.128,15.849 38.163,16.448 C38.201,17.103 38.489,18.466 39.287,18.005 C40.082,17.543 40.495,16.353 40.799,14.911 C41.105,13.471 41.412,11.053 41.412,11.053 C39.986,10.188 38.85,12.455 38.85,12.455" id="Fill-10" fill="#AE206A"></path>
                <path d="M64.123,12.13 C63.412,13.341 63.165,15.242 63.141,15.723 C63.116,16.201 63.206,17.892 63.973,18.027 C65.073,18.22 65.308,16.893 65.671,15.683 C66.036,14.474 66.497,11.112 66.497,11.112 C65.808,10.69 64.836,10.923 64.123,12.13" id="Fill-11" fill="#AE206A"></path>
                <path d="M57.143,11.283 C56.163,12.38 55.774,14.147 55.741,15.876 C55.707,17.606 56.521,18.066 56.521,18.066 C57.511,18.16 57.924,17.126 58.357,15.819 C58.768,14.571 59.035,11.016 59.035,11.016 C57.997,10.364 57.143,11.283 57.143,11.283" id="Fill-12" fill="#AE206A"></path>
                <path d="M80.643,5.231 L80.643,2.24 L83.306,2.24 L83.306,5.231 L84.354,5.231 L84.354,7.508 L83.306,7.508 L83.306,12.362 C83.306,12.651 83.357,12.854 83.461,12.973 C83.564,13.092 83.724,13.152 83.941,13.152 L84.354,13.152 L84.354,15.409 C84.108,15.409 83.862,15.419 83.615,15.438 C83.37,15.457 83.133,15.466 82.905,15.466 C82.501,15.466 82.156,15.444 81.871,15.4 C81.585,15.356 81.35,15.247 81.167,15.071 C80.985,14.897 80.852,14.635 80.769,14.291 C80.685,13.945 80.643,13.49 80.643,12.926 L80.643,7.508 L79.755,7.508 L79.755,5.231 L80.643,5.231" id="Fill-13" fill="#1A1919"></path>
                <path d="M87.58,1.977 L87.58,6.36 L87.609,6.36 C87.837,5.82 88.118,5.455 88.459,5.26 C88.8,5.065 89.132,4.969 89.458,4.969 C89.733,4.969 89.998,5.012 90.249,5.101 C90.501,5.187 90.722,5.339 90.915,5.551 C91.106,5.766 91.26,6.05 91.374,6.406 C91.487,6.765 91.544,7.207 91.544,7.733 L91.544,15.409 L88.882,15.409 L88.882,8.694 C88.882,8.268 88.831,7.96 88.732,7.771 C88.634,7.584 88.468,7.488 88.23,7.488 C87.994,7.488 87.826,7.584 87.728,7.771 C87.629,7.96 87.58,8.268 87.58,8.694 L87.58,15.409 L84.917,15.409 L84.917,1.977 L87.58,1.977" id="Fill-14" fill="#1A1919"></path>
                <path d="M96.344,7.414 C96.239,7.162 96.045,7.038 95.759,7.038 C95.482,7.038 95.293,7.162 95.188,7.414 C95.086,7.665 95.034,8.061 95.034,8.599 L95.034,9.051 L96.498,9.051 L96.498,8.599 C96.498,8.061 96.446,7.665 96.344,7.414 Z M95.034,12.229 C95.034,12.782 95.108,13.149 95.256,13.33 C95.403,13.514 95.571,13.604 95.759,13.604 C95.995,13.604 96.181,13.481 96.313,13.237 C96.446,12.992 96.514,12.525 96.514,11.836 L98.909,11.836 C98.89,13.09 98.639,14.034 98.155,14.667 C97.671,15.3 96.877,15.617 95.773,15.617 C95.132,15.617 94.595,15.526 94.162,15.345 C93.728,15.163 93.378,14.861 93.111,14.44 C92.846,14.021 92.655,13.472 92.542,12.794 C92.428,12.117 92.371,11.296 92.371,10.33 C92.371,9.353 92.436,8.523 92.563,7.847 C92.692,7.169 92.894,6.617 93.17,6.19 C93.447,5.766 93.799,5.455 94.227,5.26 C94.657,5.065 95.172,4.969 95.773,4.969 C96.307,4.969 96.772,5.05 97.172,5.213 C97.57,5.376 97.905,5.648 98.177,6.031 C98.448,6.413 98.65,6.916 98.783,7.536 C98.917,8.158 98.983,8.932 98.983,9.86 L98.983,10.895 L95.034,10.895 L95.034,12.229 L95.034,12.229 Z" id="Fill-15" fill="#1A1919"></path>
                <path d="M107.303,7.414 C107.198,7.162 107.004,7.038 106.718,7.038 C106.441,7.038 106.252,7.162 106.148,7.414 C106.045,7.665 105.994,8.061 105.994,8.599 L105.994,9.051 L107.457,9.051 L107.457,8.599 C107.457,8.061 107.405,7.665 107.303,7.414 Z M105.994,12.229 C105.994,12.782 106.067,13.149 106.216,13.33 C106.362,13.514 106.531,13.604 106.718,13.604 C106.955,13.604 107.14,13.481 107.273,13.237 C107.405,12.992 107.473,12.525 107.473,11.836 L109.869,11.836 C109.849,13.09 109.598,14.034 109.114,14.667 C108.631,15.3 107.837,15.617 106.732,15.617 C106.092,15.617 105.555,15.526 105.121,15.345 C104.687,15.163 104.337,14.861 104.07,14.44 C103.805,14.021 103.614,13.472 103.501,12.794 C103.388,12.117 103.331,11.296 103.331,10.33 C103.331,9.353 103.395,8.523 103.523,7.847 C103.651,7.169 103.854,6.617 104.13,6.19 C104.406,5.766 104.759,5.455 105.188,5.26 C105.616,5.065 106.132,4.969 106.732,4.969 C107.266,4.969 107.731,5.05 108.131,5.213 C108.529,5.376 108.865,5.648 109.136,6.031 C109.407,6.413 109.609,6.916 109.743,7.536 C109.876,8.158 109.942,8.932 109.942,9.86 L109.942,10.895 L105.994,10.895 L105.994,12.229 L105.994,12.229 Z" id="Fill-16" fill="#1A1919"></path>
                <polyline id="Fill-17" fill="#1A1919" points="112.575 5.231 113.374 7.96 114.291 5.231 116.954 5.231 114.941 10.161 117.057 15.409 114.396 15.409 113.464 12.344 112.487 15.409 109.869 15.409 111.94 10.161 109.913 5.231 112.575 5.231"></polyline>
                <path d="M120.267,11.684 C120.287,12.049 120.323,12.341 120.378,12.561 C120.432,12.779 120.509,12.933 120.607,13.021 C120.705,13.108 120.829,13.152 120.977,13.152 C121.134,13.152 121.263,13.108 121.361,13.021 C121.46,12.933 121.537,12.779 121.591,12.561 C121.646,12.341 121.682,12.049 121.702,11.684 C121.721,11.321 121.731,10.863 121.731,10.311 C121.731,9.76 121.721,9.305 121.702,8.948 C121.682,8.59 121.646,8.302 121.591,8.081 C121.537,7.862 121.46,7.708 121.361,7.622 C121.263,7.533 121.134,7.488 120.977,7.488 C120.829,7.488 120.705,7.533 120.607,7.622 C120.509,7.708 120.432,7.862 120.378,8.081 C120.323,8.302 120.287,8.59 120.267,8.948 C120.247,9.305 120.237,9.76 120.237,10.311 C120.237,10.863 120.247,11.321 120.267,11.684 Z M120.149,5.231 L120.149,6.623 L120.179,6.623 C120.483,5.521 121.09,4.969 121.997,4.969 C122.885,4.969 123.506,5.427 123.861,6.342 C124.216,7.258 124.394,8.655 124.394,10.537 C124.394,11.515 124.335,12.332 124.216,12.982 C124.098,13.636 123.933,14.157 123.721,14.554 C123.508,14.948 123.253,15.226 122.952,15.383 C122.65,15.538 122.313,15.617 121.938,15.617 C121.563,15.617 121.226,15.522 120.925,15.335 C120.624,15.147 120.404,14.789 120.267,14.263 L120.237,14.263 L120.237,18.665 L117.575,18.665 L117.575,5.231 L120.149,5.231 L120.149,5.231 Z" id="Fill-18" fill="#1A1919"></path>
                <path d="M128.956,7.414 C128.853,7.162 128.657,7.038 128.372,7.038 C128.095,7.038 127.906,7.162 127.802,7.414 C127.699,7.665 127.647,8.061 127.647,8.599 L127.647,9.051 L129.11,9.051 L129.11,8.599 C129.11,8.061 129.06,7.665 128.956,7.414 Z M127.647,12.229 C127.647,12.782 127.721,13.149 127.869,13.33 C128.017,13.514 128.185,13.604 128.372,13.604 C128.608,13.604 128.793,13.481 128.927,13.237 C129.06,12.992 129.127,12.525 129.127,11.836 L131.522,11.836 C131.503,13.09 131.251,14.034 130.768,14.667 C130.284,15.3 129.49,15.617 128.387,15.617 C127.745,15.617 127.208,15.526 126.774,15.345 C126.341,15.163 125.99,14.861 125.725,14.44 C125.458,14.021 125.269,13.472 125.154,12.794 C125.041,12.117 124.984,11.296 124.984,10.33 C124.984,9.353 125.049,8.523 125.177,7.847 C125.305,7.169 125.507,6.617 125.783,6.19 C126.06,5.766 126.412,5.455 126.841,5.26 C127.27,5.065 127.785,4.969 128.387,4.969 C128.92,4.969 129.385,5.05 129.785,5.213 C130.184,5.376 130.519,5.648 130.79,6.031 C131.062,6.413 131.263,6.916 131.396,7.536 C131.53,8.158 131.597,8.932 131.597,9.86 L131.597,10.895 L127.647,10.895 L127.647,12.229 L127.647,12.229 Z" id="Fill-19" fill="#1A1919"></path>
                <path d="M134.835,5.231 L134.835,6.85 L134.865,6.85 C135.013,6.234 135.25,5.768 135.574,5.448 C135.9,5.129 136.26,4.969 136.654,4.969 L137.083,4.969 L137.083,8.13 C136.966,8.104 136.852,8.085 136.743,8.072 C136.636,8.061 136.526,8.053 136.418,8.053 C135.944,8.053 135.578,8.186 135.315,8.449 C135.055,8.712 134.924,9.183 134.924,9.86 L134.924,15.409 L132.262,15.409 L132.262,5.231 L134.835,5.231" id="Fill-20" fill="#1A1919"></path>
                <path d="M137.587,5.231 L140.249,5.231 L140.249,15.409 L137.587,15.409 L137.587,5.231 Z M137.587,1.977 L140.249,1.977 L140.249,4.498 L137.587,4.498 L137.587,1.977 Z" id="Fill-21" fill="#1A1919"></path>
                <path d="M145.093,7.414 C144.988,7.162 144.794,7.038 144.508,7.038 C144.231,7.038 144.042,7.162 143.938,7.414 C143.835,7.665 143.783,8.061 143.783,8.599 L143.783,9.051 L145.247,9.051 L145.247,8.599 C145.247,8.061 145.195,7.665 145.093,7.414 Z M143.783,12.229 C143.783,12.782 143.857,13.149 144.005,13.33 C144.152,13.514 144.32,13.604 144.508,13.604 C144.744,13.604 144.93,13.481 145.063,13.237 C145.195,12.992 145.263,12.525 145.263,11.836 L147.659,11.836 C147.639,13.09 147.388,14.034 146.904,14.667 C146.42,15.3 145.627,15.617 144.522,15.617 C143.881,15.617 143.344,15.526 142.911,15.345 C142.477,15.163 142.127,14.861 141.86,14.44 C141.595,14.021 141.404,13.472 141.291,12.794 C141.177,12.117 141.12,11.296 141.12,10.33 C141.12,9.353 141.185,8.523 141.313,7.847 C141.441,7.169 141.643,6.617 141.919,6.19 C142.196,5.766 142.548,5.455 142.978,5.26 C143.406,5.065 143.921,4.969 144.522,4.969 C145.056,4.969 145.521,5.05 145.921,5.213 C146.319,5.376 146.654,5.648 146.926,6.031 C147.197,6.413 147.399,6.916 147.532,7.536 C147.666,8.158 147.732,8.932 147.732,9.86 L147.732,10.895 L143.783,10.895 L143.783,12.229 L143.783,12.229 Z" id="Fill-22" fill="#1A1919"></path>
                <path d="M151.045,5.231 L151.045,6.474 L151.075,6.474 C151.421,5.47 152.066,4.969 153.013,4.969 C153.309,4.969 153.582,5.01 153.833,5.09 C154.085,5.173 154.305,5.319 154.491,5.532 C154.679,5.746 154.827,6.028 154.936,6.379 C155.044,6.73 155.098,7.181 155.098,7.733 L155.098,15.409 L152.437,15.409 L152.437,8.694 C152.437,8.268 152.387,7.96 152.288,7.771 C152.189,7.584 152.021,7.488 151.785,7.488 C151.549,7.488 151.381,7.584 151.281,7.771 C151.184,7.96 151.135,8.268 151.135,8.694 L151.135,15.409 L148.472,15.409 L148.472,5.231 L151.045,5.231" id="Fill-23" fill="#1A1919"></path>
                <path d="M160.098,8.214 C160.068,7.956 160.022,7.747 159.964,7.584 C159.855,7.295 159.658,7.15 159.372,7.15 C159.225,7.15 159.099,7.197 158.995,7.291 C158.892,7.386 158.811,7.555 158.751,7.799 C158.691,8.044 158.649,8.37 158.625,8.778 C158.601,9.186 158.589,9.703 158.589,10.33 C158.589,10.957 158.601,11.475 158.625,11.882 C158.649,12.289 158.691,12.613 158.751,12.852 C158.811,13.09 158.892,13.256 158.995,13.351 C159.099,13.444 159.225,13.49 159.372,13.49 C159.619,13.49 159.809,13.371 159.941,13.134 C160.075,12.896 160.142,12.456 160.142,11.816 L160.142,11.159 L162.537,11.159 C162.537,11.961 162.482,12.645 162.375,13.209 C162.267,13.773 162.083,14.236 161.828,14.601 C161.324,15.278 160.506,15.617 159.372,15.617 C158.86,15.617 158.391,15.562 157.967,15.447 C157.543,15.335 157.181,15.094 156.88,14.724 C156.579,14.354 156.345,13.834 156.178,13.162 C156.01,12.491 155.926,11.604 155.926,10.499 C155.926,9.296 156.02,8.33 156.207,7.603 C156.395,6.876 156.647,6.315 156.969,5.928 C157.289,5.539 157.667,5.282 158.1,5.157 C158.534,5.031 159.003,4.969 159.506,4.969 C160.098,4.969 160.587,5.071 160.978,5.278 C161.366,5.486 161.678,5.774 161.909,6.144 C162.14,6.514 162.303,6.959 162.396,7.479 C162.49,8 162.537,8.58 162.537,9.219 L160.142,9.219 C160.142,8.807 160.127,8.471 160.098,8.214" id="Fill-24" fill="#1A1919"></path>
                <path d="M167.012,7.414 C166.908,7.162 166.714,7.038 166.428,7.038 C166.151,7.038 165.962,7.162 165.857,7.414 C165.755,7.665 165.703,8.061 165.703,8.599 L165.703,9.051 L167.167,9.051 L167.167,8.599 C167.167,8.061 167.115,7.665 167.012,7.414 Z M165.703,12.229 C165.703,12.782 165.776,13.149 165.925,13.33 C166.072,13.514 166.24,13.604 166.428,13.604 C166.664,13.604 166.849,13.481 166.982,13.237 C167.115,12.992 167.183,12.525 167.183,11.836 L169.578,11.836 C169.559,13.09 169.308,14.034 168.823,14.667 C168.34,15.3 167.546,15.617 166.442,15.617 C165.801,15.617 165.264,15.526 164.83,15.345 C164.396,15.163 164.046,14.861 163.78,14.44 C163.515,14.021 163.324,13.472 163.21,12.794 C163.097,12.117 163.04,11.296 163.04,10.33 C163.04,9.353 163.104,8.523 163.232,7.847 C163.36,7.169 163.563,6.617 163.839,6.19 C164.115,5.766 164.468,5.455 164.896,5.26 C165.326,5.065 165.841,4.969 166.442,4.969 C166.976,4.969 167.441,5.05 167.841,5.213 C168.239,5.376 168.574,5.648 168.846,6.031 C169.117,6.413 169.318,6.916 169.452,7.536 C169.586,8.158 169.652,8.932 169.652,9.86 L169.652,10.895 L165.703,10.895 L165.703,12.229 L165.703,12.229 Z" id="Fill-25" fill="#1A1919"></path>
                <path d="M176.691,11.9 C176.712,12.309 176.751,12.633 176.81,12.87 C176.869,13.108 176.945,13.272 177.039,13.359 C177.133,13.447 177.253,13.49 177.401,13.49 C177.55,13.49 177.673,13.447 177.771,13.359 C177.869,13.272 177.946,13.108 178.001,12.87 C178.055,12.633 178.091,12.309 178.111,11.9 C178.131,11.494 178.142,10.971 178.142,10.33 C178.142,9.69 178.131,9.163 178.111,8.75 C178.091,8.335 178.055,8.01 178.001,7.771 C177.946,7.533 177.869,7.369 177.771,7.281 C177.673,7.195 177.55,7.15 177.401,7.15 C177.253,7.15 177.133,7.195 177.039,7.281 C176.945,7.369 176.869,7.533 176.81,7.771 C176.751,8.01 176.712,8.335 176.691,8.75 C176.672,9.163 176.662,9.69 176.662,10.33 C176.662,10.971 176.672,11.494 176.691,11.9 Z M180.692,12.287 C180.619,12.926 180.463,13.494 180.227,13.989 C179.99,14.484 179.647,14.88 179.198,15.175 C178.75,15.469 178.151,15.617 177.401,15.617 C176.622,15.617 176.007,15.482 175.554,15.211 C175.099,14.942 174.759,14.565 174.532,14.083 C174.306,13.601 174.16,13.037 174.096,12.391 C174.032,11.745 173.999,11.052 173.999,10.311 C173.999,9.646 174.037,8.995 174.11,8.354 C174.185,7.715 174.34,7.145 174.576,6.643 C174.813,6.142 175.156,5.737 175.604,5.43 C176.053,5.122 176.652,4.969 177.401,4.969 C178.181,4.969 178.797,5.11 179.251,5.392 C179.704,5.675 180.045,6.059 180.271,6.549 C180.498,7.038 180.643,7.605 180.707,8.251 C180.771,8.897 180.804,9.59 180.804,10.33 C180.804,10.995 180.767,11.647 180.692,12.287 L180.692,12.287 Z" id="Fill-26" fill="#1A1919"></path>
                <path d="M181.101,7.508 L181.101,5.231 L182.017,5.231 L182.017,4.497 C182.017,3.984 182.059,3.551 182.144,3.2 C182.227,2.848 182.365,2.563 182.558,2.343 C182.75,2.124 183.003,1.964 183.318,1.864 C183.634,1.764 184.024,1.713 184.487,1.713 C184.685,1.713 184.895,1.722 185.116,1.741 C185.338,1.76 185.553,1.788 185.76,1.826 L185.76,3.951 C185.69,3.928 185.624,3.911 185.56,3.905 C185.496,3.899 185.414,3.895 185.315,3.895 C185.147,3.895 185,3.951 184.871,4.065 C184.743,4.178 184.68,4.359 184.68,4.611 L184.68,5.231 L185.76,5.231 L185.76,7.508 L184.68,7.508 L184.68,15.409 L182.017,15.409 L182.017,7.508 L181.101,7.508" id="Fill-27" fill="#1A1919"></path>
                <path d="M193.672,12.982 C193.801,12.707 193.864,12.287 193.864,11.723 L193.864,10.499 L193.835,10.499 C193.755,10.637 193.636,10.723 193.473,10.754 C193.31,10.785 193.13,10.856 192.932,10.971 C192.725,11.096 192.582,11.262 192.503,11.469 C192.424,11.676 192.386,11.947 192.386,12.287 C192.386,12.625 192.444,12.896 192.563,13.097 C192.681,13.297 192.839,13.397 193.036,13.397 C193.332,13.397 193.544,13.26 193.672,12.982 Z M193.924,14.865 C193.903,14.677 193.884,14.475 193.864,14.263 L193.835,14.263 C193.687,14.713 193.452,15.053 193.132,15.278 C192.812,15.504 192.444,15.617 192.03,15.617 C191.626,15.617 191.283,15.552 191.002,15.419 C190.721,15.288 190.492,15.09 190.314,14.827 C190.137,14.563 190.008,14.251 189.931,13.886 C189.851,13.523 189.812,13.12 189.812,12.682 C189.812,12.206 189.849,11.791 189.922,11.44 C189.997,11.09 190.117,10.785 190.285,10.527 C190.453,10.271 190.679,10.051 190.965,9.869 C191.251,9.688 191.606,9.533 192.03,9.407 L193.08,9.088 C193.366,9.001 193.568,8.871 193.687,8.702 C193.805,8.533 193.864,8.292 193.864,7.979 C193.864,7.351 193.638,7.038 193.185,7.038 C192.928,7.038 192.741,7.129 192.622,7.311 C192.503,7.493 192.439,7.853 192.43,8.392 L190.122,8.392 C190.122,7.652 190.226,7.06 190.433,6.614 C190.641,6.168 190.896,5.824 191.201,5.579 C191.508,5.334 191.838,5.173 192.193,5.09 C192.549,5.01 192.879,4.969 193.185,4.969 C193.647,4.969 194.074,5.015 194.463,5.11 C194.853,5.203 195.188,5.373 195.469,5.617 C195.75,5.86 195.968,6.194 196.12,6.614 C196.272,7.035 196.349,7.577 196.349,8.242 L196.349,13.209 C196.349,13.687 196.363,14.105 196.394,14.47 C196.424,14.833 196.492,15.147 196.601,15.409 L194.026,15.409 C193.978,15.235 193.943,15.053 193.924,14.865 L193.924,14.865 Z" id="Fill-28" fill="#1A1919"></path>
                <polygon id="Fill-29" fill="#1A1919" points="201.423 1.977 204.085 1.977 204.085 15.41 201.423 15.41"></polygon>
                <path d="M205.238,5.231 L207.9,5.231 L207.9,15.409 L205.238,15.409 L205.238,5.231 Z M205.238,1.977 L207.9,1.977 L207.9,4.498 L205.238,4.498 L205.238,1.977 Z" id="Fill-30" fill="#1A1919"></path>
                <path d="M208.478,7.508 L208.478,5.231 L209.395,5.231 L209.395,4.497 C209.395,3.984 209.437,3.551 209.521,3.2 C209.604,2.848 209.742,2.563 209.935,2.343 C210.127,2.124 210.38,1.964 210.695,1.864 C211.011,1.764 211.401,1.713 211.865,1.713 C212.062,1.713 212.271,1.722 212.493,1.741 C212.716,1.76 212.93,1.788 213.137,1.826 L213.137,3.951 C213.067,3.928 213.001,3.911 212.938,3.905 C212.873,3.899 212.791,3.895 212.692,3.895 C212.525,3.895 212.377,3.951 212.249,4.065 C212.12,4.178 212.058,4.359 212.058,4.611 L212.058,5.231 L213.137,5.231 L213.137,7.508 L212.058,7.508 L212.058,15.409 L209.395,15.409 L209.395,7.508 L208.478,7.508" id="Fill-31" fill="#1A1919"></path>
                <path d="M217.403,7.414 C217.3,7.162 217.104,7.038 216.819,7.038 C216.542,7.038 216.354,7.162 216.249,7.414 C216.146,7.665 216.095,8.061 216.095,8.599 L216.095,9.051 L217.558,9.051 L217.558,8.599 C217.558,8.061 217.507,7.665 217.403,7.414 Z M216.095,12.229 C216.095,12.782 216.168,13.149 216.316,13.33 C216.464,13.514 216.632,13.604 216.819,13.604 C217.056,13.604 217.24,13.481 217.374,13.237 C217.507,12.992 217.573,12.525 217.573,11.836 L219.97,11.836 C219.95,13.09 219.698,14.034 219.215,14.667 C218.731,15.3 217.938,15.617 216.834,15.617 C216.192,15.617 215.655,15.526 215.222,15.345 C214.788,15.163 214.438,14.861 214.172,14.44 C213.905,14.021 213.715,13.472 213.602,12.794 C213.488,12.117 213.432,11.296 213.432,10.33 C213.432,9.353 213.495,8.523 213.624,7.847 C213.752,7.169 213.954,6.617 214.23,6.19 C214.507,5.766 214.859,5.455 215.288,5.26 C215.717,5.065 216.232,4.969 216.834,4.969 C217.366,4.969 217.832,5.05 218.231,5.213 C218.63,5.376 218.966,5.648 219.237,6.031 C219.508,6.413 219.71,6.916 219.844,7.536 C219.978,8.158 220.043,8.932 220.043,9.86 L220.043,10.895 L216.095,10.895 L216.095,12.229 L216.095,12.229 Z" id="Fill-32" fill="#1A1919"></path>
                <path d="M221.167,5.231 L221.167,2.24 L223.83,2.24 L223.83,5.231 L224.88,5.231 L224.88,7.508 L223.83,7.508 L223.83,12.362 C223.83,12.651 223.882,12.854 223.985,12.973 C224.089,13.092 224.249,13.152 224.466,13.152 L224.88,13.152 L224.88,15.409 C224.634,15.409 224.387,15.419 224.141,15.438 C223.894,15.457 223.657,15.466 223.431,15.466 C223.026,15.466 222.681,15.444 222.396,15.4 C222.109,15.356 221.875,15.247 221.692,15.071 C221.51,14.897 221.376,14.635 221.293,14.291 C221.209,13.945 221.167,13.49 221.167,12.926 L221.167,7.508 L220.28,7.508 L220.28,5.231 L221.167,5.231" id="Fill-33" fill="#1A1919"></path>
                <path d="M225.486,5.231 L228.148,5.231 L228.148,15.409 L225.486,15.409 L225.486,5.231 Z M225.486,1.977 L228.148,1.977 L228.148,4.498 L225.486,4.498 L225.486,1.977 Z" id="Fill-34" fill="#1A1919"></path>
                <path d="M233,7.771 C232.901,7.584 232.734,7.488 232.497,7.488 C232.26,7.488 232.093,7.584 231.994,7.771 C231.896,7.96 231.846,8.268 231.846,8.694 L231.846,15.409 L229.184,15.409 L229.184,5.231 L231.758,5.231 L231.758,6.474 L231.787,6.474 C232.132,5.47 232.778,4.969 233.725,4.969 C234.276,4.969 234.698,5.096 234.989,5.353 C235.28,5.611 235.51,6.003 235.677,6.53 C235.884,5.953 236.168,5.549 236.527,5.316 C236.887,5.084 237.275,4.969 237.688,4.969 C237.984,4.969 238.258,5.01 238.509,5.09 C238.761,5.173 238.98,5.319 239.167,5.532 C239.354,5.746 239.503,6.028 239.611,6.379 C239.72,6.73 239.774,7.181 239.774,7.733 L239.774,15.409 L237.112,15.409 L237.112,8.694 C237.112,8.268 237.063,7.96 236.964,7.771 C236.865,7.584 236.698,7.488 236.461,7.488 C236.225,7.488 236.057,7.584 235.958,7.771 C235.86,7.96 235.811,8.268 235.811,8.694 L235.811,15.409 L233.147,15.409 L233.147,8.694 C233.147,8.268 233.098,7.96 233,7.771" id="Fill-35" fill="#1A1919"></path>
                <path d="M244.5,7.414 C244.396,7.162 244.201,7.038 243.915,7.038 C243.639,7.038 243.449,7.162 243.346,7.414 C243.242,7.665 243.19,8.061 243.19,8.599 L243.19,9.051 L244.654,9.051 L244.654,8.599 C244.654,8.061 244.603,7.665 244.5,7.414 Z M243.19,12.229 C243.19,12.782 243.265,13.149 243.413,13.33 C243.56,13.514 243.729,13.604 243.915,13.604 C244.151,13.604 244.337,13.481 244.471,13.237 C244.603,12.992 244.67,12.525 244.67,11.836 L247.066,11.836 C247.046,13.09 246.795,14.034 246.312,14.667 C245.828,15.3 245.034,15.617 243.93,15.617 C243.289,15.617 242.751,15.526 242.318,15.345 C241.884,15.163 241.534,14.861 241.268,14.44 C241.002,14.021 240.812,13.472 240.698,12.794 C240.585,12.117 240.528,11.296 240.528,10.33 C240.528,9.353 240.592,8.523 240.721,7.847 C240.849,7.169 241.051,6.617 241.327,6.19 C241.604,5.766 241.956,5.455 242.385,5.26 C242.813,5.065 243.329,4.969 243.93,4.969 C244.463,4.969 244.929,5.05 245.328,5.213 C245.727,5.376 246.063,5.648 246.333,6.031 C246.604,6.413 246.807,6.916 246.94,7.536 C247.073,8.158 247.14,8.932 247.14,9.86 L247.14,10.895 L243.19,10.895 L243.19,12.229 L243.19,12.229 Z" id="Fill-36" fill="#1A1919"></path>
                <path d="M14.959,30.913 C15.454,28.312 13.146,28.312 13.146,28.312 L13.16,33.392 C14.698,32.672 14.959,30.913 14.959,30.913 Z M4.403,32.407 L6.193,32.299 L5.27,29.548 L4.403,32.407 Z M5.313,23.783 L10.136,34.935 C10.188,26.169 10.123,25.023 10.123,25.023 C11.178,24.961 13.746,25.145 13.746,25.145 C16.797,25.374 17.761,27.639 17.761,27.639 L17.448,26.736 L20.276,24.411 L22.18,30.561 L24.187,24.472 L26.937,26.491 L26.911,24.993 C29.492,25.023 32.112,24.672 32.112,24.672 L32.165,28.112 L29.948,28.159 L29.935,29.859 C31.421,29.77 31.812,29.646 31.812,29.646 L31.838,32.319 L29.909,32.258 L29.935,33.804 C31.147,33.865 32.321,33.727 32.321,33.727 L32.334,35.548 L32.803,24.242 L38.16,30.3 L38.121,24.931 L40.976,25.023 L40.455,37.995 L35.097,31.922 L35.136,37.215 L32.346,37.047 L32.346,37.261 L26.898,37.063 C27.003,35.884 26.95,26.889 26.95,26.889 L22.062,38.361 L18.008,28.326 C18.53,30.101 17.787,32.381 17.787,32.381 C15.792,37.581 10.11,37.184 10.11,37.184 L10.161,35.654 L7.724,37.781 L6.694,35.135 L3.892,35.363 L3.136,37.796 L0.542,35.67 L5.313,23.783 L5.313,23.783 Z" id="Fill-37" fill="#1A1919"></path>
                <path d="M41.132,24.993 C41.132,24.993 45.394,25.374 48.9,25.007 L48.927,28.602 C48.927,28.602 47.259,28.526 46.594,28.495 C46.594,28.495 46.541,35.869 46.62,37.063 L43.491,37.076 C43.491,37.076 43.569,29.321 43.53,28.48 C43.53,28.48 41.771,28.586 41.197,28.586 L41.132,24.993" id="Fill-38" fill="#1A1919"></path>
                <path d="M49.604,25.068 L52.824,25.099 C52.824,25.099 52.681,25.344 52.681,28.832 C52.681,28.832 52.706,30.775 52.771,32.06 C52.771,32.06 52.798,33.804 53.71,33.956 C53.71,33.956 54.57,34.201 54.687,31.999 C54.805,29.795 54.687,25.329 54.662,24.854 L57.737,24.854 C57.737,24.854 57.751,28.954 57.725,30.362 C57.699,31.769 57.699,35.7 55.208,36.954 C55.208,36.954 52.21,38.454 50.516,35.456 C50.516,35.456 49.618,34.019 49.63,30.605 C49.643,27.195 49.604,25.068 49.604,25.068" id="Fill-39" fill="#1A1919"></path>
                <path d="M64.868,29.291 L64.868,33.788 L63.46,31.462 C63.46,31.462 64.424,31.095 64.868,29.291 Z M61.049,27.544 C61.049,27.544 62.824,27.604 62.29,29.643 C62.29,29.643 62.023,30.955 61.089,30.882 L61.049,27.544 Z M58.103,25.772 C58.103,25.772 58.116,32.672 58.116,34.722 C58.116,36.771 58.05,37.093 58.05,37.093 L61.153,37.077 C61.048,36.572 61.049,32.289 61.049,32.289 L63.538,37.857 L64.815,36.389 L64.803,37.093 L70.251,37.245 L70.16,33.728 C69.574,33.88 67.787,33.772 67.787,33.772 L67.86,32.258 L69.766,32.319 L69.643,29.676 C69.226,29.752 67.86,29.737 67.86,29.737 L67.8,28.159 L70.081,28.082 L70.016,24.686 C68.857,24.87 64.815,25.008 64.815,25.008 L64.829,27.118 C64.165,25.452 62.131,25.222 62.131,25.222 C60.592,25.008 58.025,24.993 58.025,24.993 C58.062,25.282 58.103,25.772 58.103,25.772 Z M73.393,28.357 C72.858,28.694 73.418,29.107 73.418,29.107 C73.51,29.168 74.92,30.201 75.23,30.804 C75.987,32.274 75.791,34.094 74.357,35.67 C72.923,37.245 70.602,37.413 70.602,37.413 L70.251,33.896 C71.267,34.019 71.933,33.666 71.933,33.666 C72.714,33.344 72.323,32.916 72.323,32.916 C71.189,32.059 70.59,31.202 70.59,31.202 C69.613,30.056 70.029,28.357 70.029,28.357 C70.955,24.961 74.813,24.672 74.813,24.672 L75.178,28.127 C74.031,28.021 73.393,28.357 73.393,28.357 L73.393,28.357 Z" id="Fill-40" fill="#1A1919"></path>
                <path d="M79.068,30.023 L79.068,28.408 L79.86,28.408 L79.86,27.36 C79.86,26.948 79.898,26.6 79.974,26.312 C80.049,26.026 80.157,25.797 80.296,25.626 C80.436,25.454 80.608,25.331 80.811,25.256 C81.015,25.182 81.242,25.145 81.491,25.145 C81.77,25.145 82.049,25.162 82.329,25.196 L82.329,26.88 C82.291,26.868 82.238,26.862 82.17,26.862 L82.023,26.862 C81.804,26.862 81.649,26.92 81.559,27.034 C81.468,27.148 81.423,27.338 81.423,27.602 L81.423,28.408 L82.329,28.408 L82.329,30.023 L81.423,30.023 L81.423,37.651 L79.86,37.651 L79.86,30.023 L79.068,30.023" id="Fill-41" fill="#1A1919"></path>
                <path d="M85.374,33.33 C85.253,33.406 85.144,33.46 85.046,33.494 C84.729,33.597 84.503,33.769 84.366,34.01 C84.231,34.25 84.163,34.576 84.163,34.989 C84.163,35.344 84.208,35.647 84.298,35.899 C84.39,36.151 84.54,36.277 84.751,36.277 C84.856,36.277 84.966,36.252 85.079,36.2 C85.192,36.148 85.296,36.066 85.392,35.951 C85.485,35.837 85.563,35.688 85.624,35.504 C85.683,35.32 85.714,35.104 85.714,34.852 L85.714,33.03 C85.608,33.156 85.495,33.256 85.374,33.33 Z M82.86,31.021 C82.86,30.482 82.917,30.032 83.03,29.672 C83.144,29.311 83.296,29.019 83.489,28.796 C83.681,28.572 83.907,28.412 84.169,28.314 C84.429,28.218 84.706,28.169 85.001,28.169 C85.468,28.169 85.847,28.237 86.132,28.375 C86.419,28.512 86.642,28.707 86.8,28.958 C86.96,29.211 87.067,29.511 87.124,29.861 C87.181,30.21 87.208,30.59 87.208,31.003 L87.208,35.865 C87.208,36.3 87.222,36.639 87.247,36.879 C87.274,37.12 87.325,37.377 87.401,37.651 L85.905,37.651 C85.853,37.503 85.813,37.346 85.788,37.179 C85.761,37.013 85.737,36.85 85.714,36.689 L85.69,36.689 C85.511,37.171 85.3,37.482 85.063,37.626 C84.825,37.769 84.517,37.841 84.14,37.841 C83.868,37.841 83.638,37.769 83.45,37.626 C83.261,37.482 83.11,37.285 82.997,37.033 C82.883,36.781 82.8,36.498 82.748,36.183 C82.694,35.868 82.668,35.556 82.668,35.246 C82.668,34.812 82.698,34.437 82.759,34.121 C82.819,33.807 82.912,33.537 83.036,33.314 C83.161,33.091 83.319,32.904 83.511,32.756 C83.704,32.607 83.937,32.475 84.208,32.36 L85.091,32 C85.325,31.908 85.487,31.782 85.577,31.622 C85.669,31.461 85.714,31.227 85.714,30.917 C85.714,30.563 85.659,30.284 85.55,30.084 C85.44,29.883 85.253,29.783 84.989,29.783 C84.747,29.783 84.565,29.893 84.446,30.109 C84.325,30.327 84.265,30.619 84.265,30.985 L84.265,31.244 L82.86,31.244 L82.86,31.021 L82.86,31.021 Z" id="Fill-42" fill="#1A1919"></path>
                <path d="M89.812,28.408 L89.812,29.646 L89.835,29.646 C89.993,29.199 90.186,28.841 90.412,28.572 C90.639,28.303 90.914,28.169 91.239,28.169 C91.284,28.169 91.331,28.171 91.38,28.177 C91.43,28.183 91.477,28.192 91.521,28.202 L91.521,30.471 C91.438,30.459 91.357,30.451 91.278,30.444 C91.199,30.439 91.118,30.436 91.035,30.436 C90.899,30.436 90.764,30.465 90.627,30.522 C90.491,30.58 90.367,30.674 90.254,30.806 C90.141,30.937 90.05,31.109 89.982,31.32 C89.914,31.532 89.88,31.793 89.88,32.102 L89.88,37.651 L88.317,37.651 L88.317,28.408 L89.812,28.408" id="Fill-43" fill="#1A1919"></path>
                <path d="M92.145,28.408 L93.707,28.408 L93.707,37.651 L92.145,37.651 L92.145,28.408 Z M92.145,25.248 L93.707,25.248 L93.707,27.275 L92.145,27.275 L92.145,25.248 Z" id="Fill-44" fill="#1A1919"></path>
                <path d="M96.373,35.307 C96.475,35.816 96.695,36.07 97.035,36.07 C97.383,36.07 97.607,35.816 97.709,35.307 C97.811,34.797 97.862,34.039 97.862,33.03 C97.862,32.022 97.811,31.264 97.709,30.754 C97.607,30.245 97.383,29.99 97.035,29.99 C96.695,29.99 96.475,30.245 96.373,30.754 C96.271,31.264 96.221,32.022 96.221,33.03 C96.221,34.039 96.271,34.797 96.373,35.307 Z M97.907,36.672 C97.733,37.108 97.539,37.412 97.324,37.583 C97.109,37.755 96.843,37.841 96.526,37.841 C95.885,37.841 95.412,37.469 95.11,36.725 C94.809,35.98 94.658,34.748 94.658,33.03 C94.658,31.313 94.809,30.072 95.11,29.311 C95.412,28.549 95.885,28.169 96.526,28.169 C96.82,28.169 97.071,28.261 97.279,28.443 C97.486,28.627 97.673,28.901 97.839,29.268 L97.862,29.268 L97.862,25.386 L99.425,25.386 L99.425,37.651 L97.93,37.651 L97.93,36.672 L97.907,36.672 L97.907,36.672 Z" id="Fill-45" fill="#1A1919"></path>
                <path d="M102.969,33.33 C102.848,33.406 102.738,33.46 102.64,33.494 C102.323,33.597 102.097,33.769 101.961,34.01 C101.825,34.25 101.757,34.576 101.757,34.989 C101.757,35.344 101.802,35.647 101.893,35.899 C101.983,36.151 102.134,36.277 102.346,36.277 C102.451,36.277 102.561,36.252 102.674,36.2 C102.787,36.148 102.891,36.066 102.985,35.951 C103.079,35.837 103.157,35.688 103.218,35.504 C103.277,35.32 103.308,35.104 103.308,34.852 L103.308,33.03 C103.202,33.156 103.089,33.256 102.969,33.33 Z M100.455,31.021 C100.455,30.482 100.512,30.032 100.625,29.672 C100.738,29.311 100.891,29.019 101.083,28.796 C101.275,28.572 101.502,28.412 101.763,28.314 C102.022,28.218 102.301,28.169 102.595,28.169 C103.063,28.169 103.44,28.237 103.727,28.375 C104.014,28.512 104.236,28.707 104.395,28.958 C104.554,29.211 104.661,29.511 104.718,29.861 C104.774,30.21 104.803,30.59 104.803,31.003 L104.803,35.865 C104.803,36.3 104.815,36.639 104.842,36.879 C104.868,37.12 104.919,37.377 104.995,37.651 L103.5,37.651 C103.447,37.503 103.408,37.346 103.382,37.179 C103.355,37.013 103.331,36.85 103.308,36.689 L103.285,36.689 C103.104,37.171 102.895,37.482 102.657,37.626 C102.419,37.769 102.111,37.841 101.734,37.841 C101.463,37.841 101.232,37.769 101.044,37.626 C100.854,37.482 100.704,37.285 100.591,37.033 C100.478,36.781 100.395,36.498 100.342,36.183 C100.289,35.868 100.263,35.556 100.263,35.246 C100.263,34.812 100.292,34.437 100.353,34.121 C100.413,33.807 100.506,33.537 100.63,33.314 C100.755,33.091 100.913,32.904 101.105,32.756 C101.298,32.607 101.53,32.475 101.802,32.36 L102.686,32 C102.919,31.908 103.081,31.782 103.172,31.622 C103.263,31.461 103.308,31.227 103.308,30.917 C103.308,30.563 103.253,30.284 103.144,30.084 C103.034,29.883 102.848,29.783 102.583,29.783 C102.342,29.783 102.16,29.893 102.04,30.109 C101.919,30.327 101.858,30.619 101.858,30.985 L101.858,31.244 L100.455,31.244 L100.455,31.021 L100.455,31.021 Z" id="Fill-46" fill="#1A1919"></path>
                <path d="M108.415,33.33 C108.294,33.406 108.185,33.46 108.086,33.494 C107.77,33.597 107.543,33.769 107.407,34.01 C107.271,34.25 107.203,34.576 107.203,34.989 C107.203,35.344 107.248,35.647 107.339,35.899 C107.43,36.151 107.58,36.277 107.792,36.277 C107.897,36.277 108.007,36.252 108.12,36.2 C108.233,36.148 108.337,36.066 108.432,35.951 C108.525,35.837 108.604,35.688 108.664,35.504 C108.724,35.32 108.754,35.104 108.754,34.852 L108.754,33.03 C108.648,33.156 108.535,33.256 108.415,33.33 Z M105.901,31.021 C105.901,30.482 105.958,30.032 106.071,29.672 C106.185,29.311 106.337,29.019 106.529,28.796 C106.722,28.572 106.948,28.412 107.209,28.314 C107.469,28.218 107.747,28.169 108.041,28.169 C108.509,28.169 108.887,28.237 109.173,28.375 C109.46,28.512 109.683,28.707 109.841,28.958 C110,29.211 110.107,29.511 110.164,29.861 C110.221,30.21 110.249,30.59 110.249,31.003 L110.249,35.865 C110.249,36.3 110.262,36.639 110.288,36.879 C110.314,37.12 110.365,37.377 110.441,37.651 L108.946,37.651 C108.894,37.503 108.854,37.346 108.828,37.179 C108.802,37.013 108.777,36.85 108.754,36.689 L108.731,36.689 C108.551,37.171 108.341,37.482 108.104,37.626 C107.865,37.769 107.558,37.841 107.181,37.841 C106.909,37.841 106.679,37.769 106.49,37.626 C106.301,37.482 106.15,37.285 106.037,37.033 C105.924,36.781 105.841,36.498 105.788,36.183 C105.735,35.868 105.709,35.556 105.709,35.246 C105.709,34.812 105.738,34.437 105.799,34.121 C105.859,33.807 105.952,33.537 106.076,33.314 C106.201,33.091 106.359,32.904 106.552,32.756 C106.744,32.607 106.977,32.475 107.248,32.36 L108.132,32 C108.365,31.908 108.527,31.782 108.618,31.622 C108.709,31.461 108.754,31.227 108.754,30.917 C108.754,30.563 108.699,30.284 108.59,30.084 C108.48,29.883 108.294,29.783 108.029,29.783 C107.788,29.783 107.606,29.893 107.486,30.109 C107.365,30.327 107.305,30.619 107.305,30.985 L107.305,31.244 L105.901,31.244 L105.901,31.021 L105.901,31.021 Z" id="Fill-47" fill="#1A1919"></path>
                <path d="M112.926,35.307 C113.027,35.816 113.248,36.07 113.588,36.07 C113.936,36.07 114.16,35.816 114.262,35.307 C114.363,34.797 114.415,34.039 114.415,33.03 C114.415,32.022 114.363,31.264 114.262,30.754 C114.16,30.245 113.936,29.99 113.588,29.99 C113.248,29.99 113.027,30.245 112.926,30.754 C112.824,31.264 112.773,32.022 112.773,33.03 C112.773,34.039 112.824,34.797 112.926,35.307 Z M114.46,36.672 C114.286,37.108 114.092,37.412 113.877,37.583 C113.662,37.755 113.396,37.841 113.079,37.841 C112.438,37.841 111.965,37.469 111.663,36.725 C111.361,35.98 111.211,34.748 111.211,33.03 C111.211,31.313 111.361,30.072 111.663,29.311 C111.965,28.549 112.438,28.169 113.079,28.169 C113.373,28.169 113.624,28.261 113.832,28.443 C114.039,28.627 114.226,28.901 114.392,29.268 L114.415,29.268 L114.415,25.386 L115.978,25.386 L115.978,37.651 L114.482,37.651 L114.482,36.672 L114.46,36.672 L114.46,36.672 Z" id="Fill-48" fill="#1A1919"></path>
                <polyline id="Fill-49" fill="#1A1919" points="121.469 28.408 119.94 37.651 118.129 37.651 116.555 28.408 118.185 28.408 119.057 35.022 119.079 35.022 119.906 28.408 121.469 28.408"></polyline>
                <path d="M124.933,31.046 C124.91,30.776 124.87,30.547 124.813,30.358 C124.757,30.17 124.678,30.027 124.576,29.93 C124.474,29.832 124.344,29.783 124.186,29.783 C124.026,29.783 123.896,29.838 123.795,29.947 C123.692,30.056 123.611,30.198 123.551,30.376 C123.49,30.553 123.447,30.751 123.421,30.969 C123.395,31.186 123.381,31.404 123.381,31.622 L123.381,31.982 L124.978,31.982 C124.97,31.628 124.955,31.314 124.933,31.046 Z M123.381,34.13 C123.381,34.405 123.395,34.672 123.421,34.929 C123.447,35.187 123.49,35.416 123.551,35.616 C123.611,35.816 123.69,35.977 123.789,36.098 C123.887,36.217 124.008,36.277 124.151,36.277 C124.415,36.277 124.607,36.135 124.729,35.848 C124.85,35.562 124.933,35.126 124.978,34.542 L126.382,34.542 C126.352,35.618 126.162,36.438 125.815,36.999 C125.468,37.561 124.921,37.841 124.174,37.841 C123.607,37.841 123.166,37.697 122.849,37.412 C122.532,37.125 122.298,36.748 122.147,36.277 C121.996,35.808 121.903,35.281 121.87,34.697 C121.836,34.113 121.818,33.528 121.818,32.944 C121.818,32.325 121.847,31.73 121.903,31.158 C121.96,30.586 122.073,30.075 122.243,29.628 C122.413,29.182 122.656,28.827 122.974,28.564 C123.291,28.3 123.713,28.169 124.242,28.169 C124.694,28.169 125.066,28.28 125.357,28.504 C125.647,28.727 125.876,29.042 126.042,29.448 C126.208,29.855 126.321,30.348 126.382,30.925 C126.442,31.505 126.472,32.148 126.472,32.858 L126.472,33.391 L123.381,33.391 L123.381,34.13 L123.381,34.13 Z" id="Fill-50" fill="#1A1919"></path>
                <path d="M128.782,28.408 L128.782,29.491 L128.805,29.491 C128.971,29.033 129.186,28.698 129.45,28.486 C129.714,28.274 130.016,28.169 130.355,28.169 C130.854,28.169 131.237,28.375 131.505,28.786 C131.772,29.199 131.907,29.869 131.907,30.797 L131.907,37.651 L130.345,37.651 L130.345,31.277 C130.345,30.797 130.291,30.462 130.186,30.272 C130.08,30.084 129.91,29.99 129.677,29.99 C129.125,29.99 128.85,30.499 128.85,31.519 L128.85,37.651 L127.287,37.651 L127.287,28.408 L128.782,28.408" id="Fill-51" fill="#1A1919"></path>
                <path d="M134.851,25.764 L134.851,28.408 L135.757,28.408 L135.757,30.023 L134.851,30.023 L134.851,35.022 C134.851,35.391 134.887,35.649 134.958,35.806 C135.03,35.959 135.179,36.037 135.405,36.037 C135.466,36.037 135.526,36.033 135.587,36.027 C135.646,36.023 135.703,36.014 135.757,36.002 L135.757,37.651 C135.583,37.651 135.415,37.66 135.253,37.677 C135.09,37.694 134.919,37.703 134.737,37.703 C134.436,37.703 134.188,37.672 133.996,37.608 C133.804,37.546 133.656,37.42 133.555,37.23 C133.452,37.042 133.383,36.793 133.345,36.483 C133.307,36.174 133.288,35.785 133.288,35.314 L133.288,30.023 L132.496,30.023 L132.496,28.408 L133.288,28.408 L133.288,25.764 L134.851,25.764" id="Fill-52" fill="#1A1919"></path>
                <path d="M139.402,36.569 C139.236,37.028 139.021,37.354 138.757,37.549 C138.493,37.743 138.19,37.841 137.852,37.841 C137.354,37.841 136.97,37.644 136.702,37.248 C136.434,36.854 136.3,36.191 136.3,35.264 L136.3,28.408 L137.862,28.408 L137.862,34.783 C137.862,35.264 137.915,35.599 138.021,35.788 C138.127,35.977 138.297,36.07 138.53,36.07 C139.081,36.07 139.357,35.562 139.357,34.542 L139.357,28.408 L140.92,28.408 L140.92,37.651 L139.425,37.651 L139.425,36.569 L139.402,36.569" id="Fill-53" fill="#1A1919"></path>
                <path d="M143.456,28.408 L143.456,29.646 L143.479,29.646 C143.637,29.199 143.829,28.841 144.056,28.572 C144.282,28.303 144.558,28.169 144.883,28.169 C144.928,28.169 144.975,28.171 145.023,28.177 C145.073,28.183 145.12,28.192 145.165,28.202 L145.165,30.471 C145.082,30.459 145.001,30.451 144.922,30.444 C144.843,30.439 144.762,30.436 144.679,30.436 C144.543,30.436 144.407,30.465 144.271,30.522 C144.135,30.58 144.011,30.674 143.897,30.806 C143.784,30.937 143.693,31.109 143.626,31.32 C143.558,31.532 143.523,31.793 143.523,32.102 L143.523,37.651 L141.961,37.651 L141.961,28.408 L143.456,28.408" id="Fill-54" fill="#1A1919"></path>
                <path d="M148.618,31.046 C148.596,30.776 148.556,30.547 148.499,30.358 C148.442,30.17 148.363,30.027 148.262,29.93 C148.159,29.832 148.029,29.783 147.871,29.783 C147.712,29.783 147.582,29.838 147.48,29.947 C147.378,30.056 147.297,30.198 147.236,30.376 C147.176,30.553 147.133,30.751 147.106,30.969 C147.08,31.186 147.066,31.404 147.066,31.622 L147.066,31.982 L148.663,31.982 C148.655,31.628 148.641,31.314 148.618,31.046 Z M147.066,34.13 C147.066,34.405 147.08,34.672 147.106,34.929 C147.133,35.187 147.176,35.416 147.236,35.616 C147.297,35.816 147.376,35.977 147.475,36.098 C147.572,36.217 147.693,36.277 147.837,36.277 C148.101,36.277 148.293,36.135 148.414,35.848 C148.535,35.562 148.618,35.126 148.663,34.542 L150.067,34.542 C150.037,35.618 149.848,36.438 149.501,36.999 C149.153,37.561 148.606,37.841 147.859,37.841 C147.293,37.841 146.852,37.697 146.534,37.412 C146.218,37.125 145.983,36.748 145.833,36.277 C145.682,35.808 145.589,35.281 145.556,34.697 C145.521,34.113 145.504,33.528 145.504,32.944 C145.504,32.325 145.532,31.73 145.589,31.158 C145.646,30.586 145.759,30.075 145.929,29.628 C146.099,29.182 146.342,28.827 146.659,28.564 C146.977,28.3 147.398,28.169 147.928,28.169 C148.38,28.169 148.752,28.28 149.043,28.504 C149.333,28.727 149.562,29.042 149.728,29.448 C149.894,29.855 150.007,30.348 150.067,30.925 C150.128,31.505 150.157,32.148 150.157,32.858 L150.157,33.391 L147.066,33.391 L147.066,34.13 L147.066,34.13 Z" id="Fill-55" fill="#1A1919"></path>
                <path d="M152.116,34.938 C152.116,35.338 152.187,35.661 152.326,35.908 C152.466,36.154 152.667,36.277 152.932,36.277 C153.173,36.277 153.365,36.186 153.509,36.002 C153.652,35.819 153.725,35.544 153.725,35.178 C153.725,34.88 153.668,34.654 153.555,34.499 C153.441,34.345 153.309,34.222 153.158,34.13 L152.06,33.528 C151.63,33.299 151.305,32.976 151.086,32.558 C150.867,32.14 150.758,31.605 150.758,30.952 C150.758,30.574 150.799,30.216 150.883,29.877 C150.966,29.54 151.098,29.245 151.278,28.993 C151.46,28.741 151.692,28.541 151.975,28.392 C152.258,28.243 152.6,28.169 153,28.169 C153.709,28.169 154.233,28.397 154.573,28.855 C154.913,29.314 155.083,29.961 155.083,30.797 L155.083,31.175 L153.679,31.175 C153.679,30.693 153.628,30.342 153.526,30.118 C153.424,29.895 153.245,29.783 152.988,29.783 C152.792,29.783 152.62,29.867 152.473,30.032 C152.326,30.198 152.252,30.447 152.252,30.779 C152.252,31.009 152.3,31.215 152.394,31.398 C152.488,31.581 152.667,31.736 152.932,31.861 L153.871,32.343 C154.362,32.596 154.709,32.925 154.913,33.33 C155.117,33.737 155.219,34.29 155.219,34.989 C155.219,35.481 155.162,35.908 155.049,36.269 C154.936,36.629 154.779,36.931 154.579,37.171 C154.379,37.412 154.142,37.583 153.866,37.687 C153.59,37.79 153.286,37.841 152.954,37.841 C152.517,37.841 152.152,37.778 151.861,37.651 C151.571,37.525 151.341,37.337 151.171,37.085 C151.001,36.833 150.883,36.526 150.814,36.166 C150.746,35.806 150.713,35.4 150.713,34.954 L150.713,34.628 L152.116,34.628 L152.116,34.938" id="Fill-56" fill="#1A1919"></path>
                <polygon id="Fill-57" fill="#1A1919" points="156.091 34.972 157.585 34.972 157.585 37.652 156.091 37.652"></polygon>
                <path d="M161.621,31.071 C161.603,30.855 161.568,30.656 161.52,30.479 C161.47,30.302 161.4,30.159 161.31,30.05 C161.22,29.941 161.099,29.887 160.947,29.887 C160.759,29.887 160.604,29.953 160.483,30.084 C160.362,30.216 160.271,30.41 160.212,30.668 C160.151,30.925 160.109,31.252 160.087,31.647 C160.064,32.043 160.053,32.51 160.053,33.048 C160.053,33.62 160.064,34.109 160.087,34.517 C160.109,34.923 160.151,35.258 160.212,35.521 C160.271,35.785 160.356,35.977 160.467,36.098 C160.576,36.217 160.717,36.277 160.891,36.277 C161.155,36.277 161.348,36.105 161.469,35.763 C161.589,35.418 161.649,34.868 161.649,34.113 L163.144,34.113 C163.144,35.326 162.965,36.252 162.606,36.887 C162.248,37.523 161.653,37.841 160.823,37.841 C160.431,37.841 160.089,37.769 159.799,37.626 C159.508,37.482 159.267,37.226 159.074,36.854 C158.881,36.481 158.736,35.982 158.638,35.357 C158.54,34.734 158.49,33.957 158.49,33.03 C158.49,32.08 158.551,31.293 158.672,30.668 C158.792,30.044 158.962,29.546 159.182,29.174 C159.4,28.802 159.66,28.541 159.963,28.392 C160.265,28.243 160.597,28.169 160.959,28.169 C161.684,28.169 162.229,28.488 162.595,29.131 C162.961,29.772 163.144,30.643 163.144,31.741 L161.649,31.741 C161.649,31.513 161.64,31.289 161.621,31.071" id="Fill-58" fill="#1A1919"></path>
                <path d="M165.341,34.335 C165.355,34.736 165.392,35.081 165.448,35.367 C165.505,35.653 165.59,35.877 165.703,36.037 C165.816,36.197 165.967,36.277 166.156,36.277 C166.473,36.277 166.691,36.025 166.813,35.521 C166.934,35.017 166.993,34.188 166.993,33.03 C166.993,31.873 166.934,31.043 166.813,30.539 C166.691,30.035 166.473,29.783 166.156,29.783 C165.967,29.783 165.816,29.863 165.703,30.023 C165.59,30.185 165.505,30.408 165.448,30.693 C165.392,30.979 165.355,31.324 165.341,31.725 C165.325,32.126 165.318,32.561 165.318,33.03 C165.318,33.5 165.325,33.936 165.341,34.335 Z M163.88,30.935 C163.963,30.327 164.099,29.82 164.288,29.414 C164.477,29.008 164.724,28.698 165.029,28.486 C165.335,28.274 165.71,28.169 166.156,28.169 C166.624,28.157 167.013,28.251 167.322,28.451 C167.632,28.652 167.877,28.958 168.058,29.371 C168.239,29.783 168.367,30.293 168.442,30.899 C168.519,31.507 168.556,32.218 168.556,33.03 C168.556,33.82 168.515,34.52 168.432,35.126 C168.349,35.733 168.213,36.24 168.023,36.646 C167.835,37.054 167.588,37.354 167.282,37.549 C166.977,37.743 166.601,37.841 166.156,37.841 C165.688,37.853 165.299,37.763 164.989,37.574 C164.68,37.385 164.435,37.087 164.254,36.682 C164.072,36.274 163.944,35.765 163.869,35.152 C163.793,34.539 163.756,33.832 163.756,33.03 C163.756,32.239 163.797,31.542 163.88,30.935 L163.88,30.935 Z" id="Fill-59" fill="#1A1919"></path>
                <path d="M170.889,28.408 L170.889,29.354 L170.911,29.354 C171.107,28.931 171.328,28.627 171.573,28.443 C171.818,28.261 172.111,28.169 172.451,28.169 C172.813,28.169 173.117,28.294 173.362,28.547 C173.607,28.798 173.771,29.164 173.854,29.646 L173.877,29.646 C173.998,29.154 174.192,28.784 174.461,28.537 C174.729,28.292 175.047,28.169 175.417,28.169 C175.938,28.169 176.321,28.406 176.566,28.882 C176.812,29.356 176.935,30.041 176.935,30.935 L176.935,37.651 L175.372,37.651 L175.372,31.191 C175.372,30.803 175.324,30.505 175.23,30.298 C175.136,30.093 174.979,29.99 174.761,29.99 C174.512,29.99 174.313,30.116 174.166,30.367 C174.019,30.619 173.945,31.021 173.945,31.569 L173.945,37.651 L172.383,37.651 L172.383,31.191 C172.383,30.803 172.336,30.505 172.241,30.298 C172.146,30.093 171.99,29.99 171.771,29.99 C171.522,29.99 171.324,30.116 171.177,30.367 C171.03,30.619 170.956,31.021 170.956,31.569 L170.956,37.651 L169.394,37.651 L169.394,28.408 L170.889,28.408" id="Fill-60" fill="#1A1919"></path>
                <path d="M184.764,34.396 C184.79,34.883 184.837,35.267 184.905,35.547 C184.973,35.828 185.063,36.02 185.177,36.123 C185.29,36.226 185.434,36.277 185.607,36.277 C185.788,36.277 185.936,36.212 186.049,36.08 C186.162,35.948 186.25,35.726 186.314,35.41 C186.379,35.095 186.424,34.674 186.45,34.146 C186.477,33.62 186.49,32.968 186.49,32.188 L186.49,30.866 C186.49,30.099 186.477,29.472 186.45,28.984 C186.424,28.498 186.377,28.114 186.309,27.834 C186.241,27.554 186.15,27.36 186.037,27.258 C185.924,27.154 185.78,27.104 185.607,27.104 C185.426,27.104 185.278,27.17 185.165,27.301 C185.052,27.433 184.963,27.656 184.899,27.971 C184.835,28.286 184.79,28.707 184.764,29.234 C184.737,29.76 184.724,30.413 184.724,31.191 L184.724,32.515 C184.724,33.283 184.737,33.91 184.764,34.396 Z M183.15,29.542 C183.188,28.765 183.29,28.073 183.456,27.472 C183.622,26.872 183.873,26.391 184.209,26.029 C184.545,25.668 185.011,25.489 185.607,25.489 C186.098,25.489 186.503,25.595 186.824,25.807 C187.145,26.019 187.401,26.359 187.594,26.829 C187.786,27.298 187.922,27.908 188.002,28.658 C188.081,29.408 188.12,30.321 188.12,31.398 C188.12,32.245 188.102,33.06 188.063,33.838 C188.026,34.617 187.924,35.307 187.758,35.908 C187.592,36.509 187.341,36.981 187.005,37.325 C186.669,37.669 186.203,37.841 185.607,37.841 C185.124,37.841 184.72,37.743 184.396,37.549 C184.071,37.354 183.813,37.022 183.62,36.552 C183.428,36.082 183.292,35.473 183.212,34.723 C183.133,33.973 183.094,33.06 183.094,31.982 C183.094,31.135 183.112,30.321 183.15,29.542 L183.15,29.542 Z" id="Fill-61" fill="#1A1919"></path>
                <path d="M190.385,29.062 L188.788,29.062 L188.788,27.446 L188.936,27.446 C189.479,27.446 189.907,27.292 190.221,26.983 C190.534,26.674 190.731,26.175 190.815,25.489 L192.016,25.489 L192.016,37.651 L190.385,37.651 L190.385,29.062" id="Fill-62" fill="#1A1919"></path>
                <path d="M195.752,31.277 C195.888,31.634 196.114,31.811 196.431,31.811 C196.755,31.811 196.985,31.634 197.121,31.277 C197.257,30.923 197.325,30.333 197.325,29.509 C197.325,29.164 197.313,28.845 197.291,28.547 C197.269,28.249 197.226,27.994 197.161,27.781 C197.097,27.569 197.006,27.403 196.89,27.283 C196.772,27.164 196.619,27.104 196.431,27.104 C196.234,27.104 196.078,27.164 195.961,27.283 C195.844,27.403 195.755,27.573 195.695,27.791 C195.635,28.008 195.595,28.263 195.576,28.555 C195.557,28.847 195.548,29.164 195.548,29.509 C195.548,30.333 195.615,30.923 195.752,31.277 Z M195.836,35.891 C195.945,36.148 196.137,36.277 196.408,36.277 C196.627,36.277 196.801,36.2 196.929,36.045 C197.058,35.891 197.157,35.677 197.229,35.4 C197.301,35.126 197.348,34.8 197.37,34.422 C197.394,34.045 197.404,33.632 197.404,33.185 L197.404,32.602 L197.382,32.602 C197.246,32.909 197.052,33.159 196.799,33.348 C196.546,33.537 196.238,33.632 195.876,33.632 C195.521,33.632 195.22,33.537 194.971,33.348 C194.721,33.159 194.52,32.896 194.364,32.558 C194.21,32.22 194.097,31.819 194.024,31.355 C193.953,30.892 193.917,30.385 193.917,29.834 C193.917,28.426 194.123,27.35 194.534,26.605 C194.945,25.861 195.604,25.489 196.51,25.489 C197.068,25.489 197.514,25.646 197.846,25.961 C198.178,26.275 198.433,26.694 198.61,27.215 C198.787,27.736 198.902,28.34 198.956,29.027 C199.009,29.715 199.035,30.431 199.035,31.175 C199.035,32.045 199.018,32.884 198.984,33.692 C198.95,34.499 198.848,35.212 198.679,35.831 C198.509,36.449 198.24,36.938 197.874,37.3 C197.508,37.66 196.997,37.841 196.34,37.841 C196.054,37.841 195.776,37.798 195.508,37.712 C195.24,37.626 195.004,37.466 194.801,37.23 C194.597,36.996 194.433,36.682 194.308,36.286 C194.184,35.891 194.117,35.4 194.109,34.816 L195.672,34.816 C195.672,35.275 195.727,35.633 195.836,35.891 L195.836,35.891 Z" id="Fill-63" fill="#1A1919"></path>
                <path d="M201.254,29.062 L199.657,29.062 L199.657,27.446 L199.805,27.446 C200.349,27.446 200.776,27.292 201.09,26.983 C201.403,26.674 201.601,26.175 201.685,25.489 L202.885,25.489 L202.885,37.651 L201.254,37.651 L201.254,29.062" id="Fill-64" fill="#1A1919"></path>
                <path d="M209.201,27.653 L209.031,30.419 L209.055,30.419 C209.205,30.099 209.401,29.867 209.644,29.724 C209.885,29.581 210.179,29.509 210.526,29.509 C210.911,29.509 211.229,29.62 211.483,29.844 C211.735,30.066 211.936,30.362 212.083,30.729 C212.23,31.095 212.334,31.51 212.395,31.975 C212.455,32.438 212.485,32.909 212.485,33.391 C212.485,34.066 212.447,34.68 212.372,35.23 C212.296,35.778 212.162,36.252 211.97,36.646 C211.777,37.042 211.515,37.34 211.183,37.54 C210.851,37.74 210.428,37.841 209.915,37.841 C209.409,37.841 209,37.737 208.687,37.531 C208.373,37.325 208.134,37.054 207.968,36.715 C207.802,36.378 207.69,36.012 207.634,35.616 C207.577,35.221 207.549,34.852 207.549,34.508 L207.549,34.182 L209.111,34.182 C209.111,34.388 209.118,34.605 209.134,34.834 C209.148,35.063 209.185,35.277 209.241,35.479 C209.298,35.679 209.379,35.845 209.484,35.977 C209.59,36.109 209.729,36.174 209.903,36.174 C210.243,36.174 210.486,35.977 210.634,35.581 C210.781,35.187 210.854,34.594 210.854,33.804 C210.854,33.299 210.84,32.882 210.81,32.549 C210.779,32.218 210.729,31.953 210.656,31.759 C210.585,31.563 210.488,31.427 210.368,31.347 C210.247,31.268 210.096,31.227 209.915,31.227 C209.681,31.227 209.502,31.326 209.377,31.526 C209.253,31.727 209.175,32 209.145,32.343 L207.685,32.343 L207.979,25.729 L212.156,25.729 L212.156,27.653 L209.201,27.653" id="Fill-65" fill="#1A1919"></path>
                <path d="M214.682,34.834 C214.704,35.132 214.747,35.387 214.812,35.599 C214.876,35.811 214.966,35.977 215.083,36.098 C215.2,36.217 215.354,36.277 215.542,36.277 C215.738,36.277 215.895,36.217 216.012,36.098 C216.129,35.977 216.218,35.808 216.277,35.59 C216.338,35.373 216.378,35.118 216.396,34.826 C216.415,34.533 216.425,34.216 216.425,33.872 C216.425,33.048 216.357,32.458 216.222,32.102 C216.085,31.748 215.859,31.569 215.542,31.569 C215.217,31.569 214.987,31.748 214.852,32.102 C214.716,32.458 214.647,33.048 214.647,33.872 C214.647,34.216 214.659,34.536 214.682,34.834 Z M216.137,27.481 C216.026,27.229 215.836,27.104 215.564,27.104 C215.354,27.104 215.182,27.18 215.05,27.335 C214.917,27.489 214.815,27.704 214.744,27.979 C214.672,28.255 214.625,28.58 214.603,28.958 C214.579,29.336 214.568,29.749 214.568,30.196 L214.568,30.797 L214.591,30.797 C214.727,30.477 214.921,30.222 215.174,30.032 C215.427,29.844 215.734,29.749 216.097,29.749 C216.451,29.749 216.753,29.844 217.002,30.032 C217.252,30.222 217.453,30.484 217.608,30.823 C217.763,31.16 217.876,31.562 217.948,32.025 C218.02,32.489 218.056,32.995 218.056,33.546 C218.056,34.954 217.85,36.023 217.438,36.75 C217.026,37.477 216.368,37.841 215.463,37.841 C214.904,37.841 214.459,37.692 214.127,37.395 C213.794,37.097 213.54,36.688 213.362,36.166 C213.185,35.645 213.069,35.04 213.017,34.352 C212.964,33.665 212.938,32.95 212.938,32.206 C212.938,31.347 212.955,30.514 212.988,29.706 C213.022,28.899 213.125,28.183 213.295,27.558 C213.464,26.935 213.73,26.434 214.093,26.056 C214.455,25.678 214.968,25.489 215.633,25.489 C215.919,25.489 216.196,25.54 216.465,25.643 C216.732,25.746 216.969,25.918 217.172,26.159 C217.376,26.398 217.54,26.717 217.665,27.111 C217.789,27.507 217.855,27.996 217.863,28.58 L216.301,28.58 C216.301,28.1 216.246,27.732 216.137,27.481 L216.137,27.481 Z" id="Fill-66" fill="#1A1919"></path>
                <path d="M220.07,27.653 L219.9,30.419 L219.924,30.419 C220.074,30.099 220.271,29.867 220.513,29.724 C220.754,29.581 221.048,29.509 221.396,29.509 C221.78,29.509 222.099,29.62 222.353,29.844 C222.604,30.066 222.805,30.362 222.952,30.729 C223.1,31.095 223.203,31.51 223.264,31.975 C223.324,32.438 223.354,32.909 223.354,33.391 C223.354,34.066 223.316,34.68 223.241,35.23 C223.165,35.778 223.031,36.252 222.839,36.646 C222.646,37.042 222.384,37.34 222.052,37.54 C221.72,37.74 221.297,37.841 220.784,37.841 C220.278,37.841 219.869,37.737 219.556,37.531 C219.242,37.325 219.003,37.054 218.837,36.715 C218.671,36.378 218.56,36.012 218.503,35.616 C218.446,35.221 218.418,34.852 218.418,34.508 L218.418,34.182 L219.98,34.182 C219.98,34.388 219.987,34.605 220.003,34.834 C220.018,35.063 220.054,35.277 220.11,35.479 C220.167,35.679 220.248,35.845 220.354,35.977 C220.459,36.109 220.599,36.174 220.772,36.174 C221.112,36.174 221.355,35.977 221.503,35.581 C221.65,35.187 221.724,34.594 221.724,33.804 C221.724,33.299 221.709,32.882 221.679,32.549 C221.648,32.218 221.598,31.953 221.525,31.759 C221.454,31.563 221.357,31.427 221.237,31.347 C221.116,31.268 220.965,31.227 220.784,31.227 C220.55,31.227 220.371,31.326 220.246,31.526 C220.122,31.727 220.044,32 220.014,32.343 L218.554,32.343 L218.848,25.729 L223.025,25.729 L223.025,27.653 L220.07,27.653" id="Fill-67" fill="#1A1919"></path>
                <path d="M226.569,37.651 C226.569,37.114 226.604,36.609 226.677,36.141 C226.748,35.671 226.857,35.224 227.005,34.8 C227.152,34.376 227.337,33.961 227.56,33.554 C227.782,33.148 228.041,32.738 228.335,32.325 L228.992,31.398 C229.173,31.158 229.318,30.935 229.428,30.729 C229.537,30.522 229.622,30.315 229.683,30.109 C229.743,29.904 229.782,29.681 229.802,29.439 C229.82,29.199 229.83,28.925 229.83,28.615 C229.83,27.607 229.565,27.104 229.037,27.104 C228.833,27.104 228.673,27.166 228.556,27.292 C228.438,27.419 228.349,27.59 228.284,27.807 C228.22,28.025 228.179,28.277 228.16,28.564 C228.141,28.851 228.132,29.154 228.132,29.474 L226.569,29.474 L226.569,29.011 C226.569,27.877 226.769,27.006 227.169,26.398 C227.569,25.791 228.199,25.489 229.06,25.489 C229.875,25.489 230.479,25.775 230.871,26.348 C231.264,26.92 231.46,27.738 231.46,28.804 C231.46,29.193 231.438,29.558 231.393,29.895 C231.347,30.233 231.275,30.557 231.177,30.866 C231.079,31.175 230.95,31.476 230.792,31.768 C230.634,32.06 230.441,32.36 230.215,32.67 L229.309,33.941 C229.067,34.272 228.879,34.597 228.743,34.911 C228.607,35.227 228.521,35.498 228.482,35.728 L231.506,35.728 L231.506,37.651 L226.569,37.651" id="Fill-68" fill="#1A1919"></path>
                <path d="M233.793,31.277 C233.929,31.634 234.155,31.811 234.472,31.811 C234.796,31.811 235.026,31.634 235.162,31.277 C235.298,30.923 235.366,30.333 235.366,29.509 C235.366,29.164 235.354,28.845 235.332,28.547 C235.31,28.249 235.267,27.994 235.202,27.781 C235.138,27.569 235.047,27.403 234.931,27.283 C234.813,27.164 234.66,27.104 234.472,27.104 C234.275,27.104 234.119,27.164 234.002,27.283 C233.885,27.403 233.796,27.573 233.736,27.791 C233.676,28.008 233.636,28.263 233.617,28.555 C233.598,28.847 233.589,29.164 233.589,29.509 C233.589,30.333 233.656,30.923 233.793,31.277 Z M233.877,35.891 C233.986,36.148 234.178,36.277 234.449,36.277 C234.668,36.277 234.842,36.2 234.97,36.045 C235.099,35.891 235.198,35.677 235.271,35.4 C235.342,35.126 235.389,34.8 235.411,34.422 C235.435,34.045 235.445,33.632 235.445,33.185 L235.445,32.602 L235.423,32.602 C235.287,32.909 235.093,33.159 234.84,33.348 C234.587,33.537 234.279,33.632 233.917,33.632 C233.563,33.632 233.261,33.537 233.012,33.348 C232.762,33.159 232.561,32.896 232.405,32.558 C232.251,32.22 232.138,31.819 232.065,31.355 C231.994,30.892 231.958,30.385 231.958,29.834 C231.958,28.426 232.164,27.35 232.575,26.605 C232.986,25.861 233.646,25.489 234.551,25.489 C235.109,25.489 235.555,25.646 235.887,25.961 C236.219,26.275 236.474,26.694 236.651,27.215 C236.828,27.736 236.943,28.34 236.997,29.027 C237.05,29.715 237.076,30.431 237.076,31.175 C237.076,32.045 237.059,32.884 237.025,33.692 C236.991,34.499 236.889,35.212 236.72,35.831 C236.55,36.449 236.281,36.938 235.915,37.3 C235.549,37.66 235.038,37.841 234.381,37.841 C234.095,37.841 233.817,37.798 233.549,37.712 C233.281,37.626 233.045,37.466 232.842,37.23 C232.638,36.996 232.474,36.682 232.349,36.286 C232.225,35.891 232.158,35.4 232.15,34.816 L233.713,34.816 C233.713,35.275 233.768,35.633 233.877,35.891 L233.877,35.891 Z" id="Fill-69" fill="#1A1919"></path>
                <path d="M237.438,37.651 C237.438,37.114 237.474,36.609 237.546,36.141 C237.617,35.671 237.727,35.224 237.874,34.8 C238.021,34.376 238.206,33.961 238.429,33.554 C238.651,33.148 238.91,32.738 239.204,32.325 L239.861,31.398 C240.042,31.158 240.188,30.935 240.297,30.729 C240.406,30.522 240.491,30.315 240.552,30.109 C240.612,29.904 240.651,29.681 240.671,29.439 C240.689,29.199 240.699,28.925 240.699,28.615 C240.699,27.607 240.435,27.104 239.906,27.104 C239.702,27.104 239.542,27.166 239.425,27.292 C239.308,27.419 239.218,27.59 239.153,27.807 C239.089,28.025 239.048,28.277 239.029,28.564 C239.01,28.851 239.001,29.154 239.001,29.474 L237.438,29.474 L237.438,29.011 C237.438,27.877 237.638,27.006 238.038,26.398 C238.438,25.791 239.068,25.489 239.929,25.489 C240.744,25.489 241.348,25.775 241.74,26.348 C242.133,26.92 242.329,27.738 242.329,28.804 C242.329,29.193 242.307,29.558 242.262,29.895 C242.216,30.233 242.145,30.557 242.046,30.866 C241.948,31.175 241.819,31.476 241.661,31.768 C241.503,32.06 241.311,32.36 241.084,32.67 L240.178,33.941 C239.937,34.272 239.748,34.597 239.612,34.911 C239.477,35.227 239.39,35.498 239.352,35.728 L242.375,35.728 L242.375,37.651 L237.438,37.651" id="Fill-70" fill="#1A1919"></path>
                <path d="M244.543,34.396 C244.569,34.883 244.616,35.267 244.685,35.547 C244.752,35.828 244.843,36.02 244.956,36.123 C245.069,36.226 245.213,36.277 245.387,36.277 C245.567,36.277 245.715,36.212 245.828,36.08 C245.941,35.948 246.029,35.726 246.094,35.41 C246.158,35.095 246.203,34.674 246.229,34.146 C246.256,33.62 246.27,32.968 246.27,32.188 L246.27,30.866 C246.27,30.099 246.256,29.472 246.229,28.984 C246.203,28.498 246.156,28.114 246.088,27.834 C246.021,27.554 245.93,27.36 245.816,27.258 C245.703,27.154 245.56,27.104 245.387,27.104 C245.205,27.104 245.058,27.17 244.944,27.301 C244.831,27.433 244.742,27.656 244.679,27.971 C244.614,28.286 244.569,28.707 244.543,29.234 C244.517,29.76 244.503,30.413 244.503,31.191 L244.503,32.515 C244.503,33.283 244.517,33.91 244.543,34.396 Z M242.93,29.542 C242.967,28.765 243.069,28.073 243.235,27.472 C243.401,26.872 243.652,26.391 243.988,26.029 C244.324,25.668 244.79,25.489 245.387,25.489 C245.877,25.489 246.282,25.595 246.604,25.807 C246.924,26.019 247.181,26.359 247.373,26.829 C247.565,27.298 247.701,27.908 247.781,28.658 C247.86,29.408 247.899,30.321 247.899,31.398 C247.899,32.245 247.881,33.06 247.843,33.838 C247.806,34.617 247.703,35.307 247.537,35.908 C247.371,36.509 247.12,36.981 246.784,37.325 C246.448,37.669 245.982,37.841 245.387,37.841 C244.903,37.841 244.499,37.743 244.175,37.549 C243.851,37.354 243.592,37.022 243.399,36.552 C243.207,36.082 243.071,35.473 242.991,34.723 C242.912,33.973 242.873,33.06 242.873,31.982 C242.873,31.135 242.892,30.321 242.93,29.542 L242.93,29.542 Z" id="Fill-71" fill="#1A1919"></path>
            </g>
        </g>
    </g>
</svg>