<?xml version="1.0" encoding="UTF-8"?>
<svg width="41px" height="41px" viewBox="0 0 41 41" version="1.1" xmlns="http://www.w3.org/2000/svg" xmlns:xlink="http://www.w3.org/1999/xlink">
    <!-- Generator: Sketch 46.2 (44496) - http://www.bohemiancoding.com/sketch -->
    <title>facebook</title>
    <desc>Created with Sketch.</desc>
    <defs></defs>
    <g id="Page-1" stroke="none" stroke-width="1" fill="none" fill-rule="evenodd">
        <g id="facebook" fill-rule="nonzero">
            <path d="M20.3918513,40.8265712 C9.18777652,40.8265712 0.105534449,31.7438305 0.105534449,20.5402543 C0.105534449,9.33617952 9.18777652,0.253937452 20.3918513,0.253937452 C31.5959262,0.253937452 40.6781682,9.33617952 40.6781682,20.5402543 C40.6781682,31.7438305 31.5959262,40.8265712 20.3918513,40.8265712 Z" id="Fill-6" fill="#9D344B"></path>
            <path d="M22.3286782,33.888602 L22.3286782,20.8489299 L25.961974,20.8489299 L26.3489404,16.4830907 L22.3286782,16.4830907 C22.3286782,16.4830907 22.3286782,14.8534434 22.3286782,13.9967316 C22.3286782,12.9674806 22.5356255,12.5605674 23.530967,12.5605674 C24.331828,12.5605674 26.3489404,12.5605674 26.3489404,12.5605674 L26.3489404,8.02917043 C26.3489404,8.02917043 23.3778759,8.02917043 22.7435701,8.02917043 C18.868919,8.02917043 17.1220846,9.73611133 17.1220846,13.0023874 C17.1220846,15.8477875 17.1220846,16.4830907 17.1220846,16.4830907 L14.4133195,16.4830907 L14.4133195,20.9037834 L17.1220846,20.9037834 L17.1220846,33.888602 L22.3286782,33.888602 Z" id="Fill-7" fill="#FFFFFF"></path>
        </g>
    </g>
</svg>