<?xml version="1.0" encoding="UTF-8"?>
<svg width="41px" height="41px" viewBox="0 0 41 41" version="1.1" xmlns="http://www.w3.org/2000/svg" xmlns:xlink="http://www.w3.org/1999/xlink">
    <!-- Generator: Sketch 46.2 (44496) - http://www.bohemiancoding.com/sketch -->
    <title>facebook</title>
    <desc>Created with Sketch.</desc>
    <defs></defs>
    <g id="Welcome" stroke="none" stroke-width="1" fill="none" fill-rule="evenodd">
        <g id="Desktop" transform="translate(-391.000000, -1181.000000)">
            <g id="Footer" transform="translate(0.000000, 1093.710000)">
                <g id="Social-media" transform="translate(387.000000, 33.321216)">
                    <g id="facebook" transform="translate(4.000000, 54.000000)">
                        <path d="M20.3918513,40.7953552 C9.18777652,40.7953552 0.105534449,31.7126145 0.105534449,20.5090383 C0.105534449,9.30496352 9.18777652,0.222721452 20.3918513,0.222721452 C31.5959262,0.222721452 40.6781682,9.30496352 40.6781682,20.5090383 C40.6781682,31.7126145 31.5959262,40.7953552 20.3918513,40.7953552 Z" id="Fill-6" fill="#FFFFFF"></path>
                        <path d="M22.3286782,33.857386 L22.3286782,20.8177139 L25.961974,20.8177139 L26.3489404,16.4518747 L22.3286782,16.4518747 C22.3286782,16.4518747 22.3286782,14.8222274 22.3286782,13.9655156 C22.3286782,12.9362646 22.5356255,12.5293514 23.530967,12.5293514 C24.331828,12.5293514 26.3489404,12.5293514 26.3489404,12.5293514 L26.3489404,7.99795443 C26.3489404,7.99795443 23.3778759,7.99795443 22.7435701,7.99795443 C18.868919,7.99795443 17.1220846,9.70489533 17.1220846,12.9711714 C17.1220846,15.8165715 17.1220846,16.4518747 17.1220846,16.4518747 L14.4133195,16.4518747 L14.4133195,20.8725674 L17.1220846,20.8725674 L17.1220846,33.857386 L22.3286782,33.857386 Z" id="Fill-7" fill="#9D344B"></path>
                    </g>
                </g>
            </g>
        </g>
    </g>
</svg>