<?xml version="1.0" encoding="UTF-8"?>
<svg width="42px" height="42px" viewBox="0 0 42 42" version="1.1" xmlns="http://www.w3.org/2000/svg" xmlns:xlink="http://www.w3.org/1999/xlink">
    <!-- Generator: Sketch 46.2 (44496) - http://www.bohemiancoding.com/sketch -->
    <title>instagram</title>
    <desc>Created with Sketch.</desc>
    <defs></defs>
    <g id="Welcome" stroke="none" stroke-width="1" fill="none" fill-rule="evenodd">
        <g id="Desktop" transform="translate(-521.000000, -1181.000000)">
            <g id="Footer" transform="translate(0.000000, 1093.710000)">
                <g id="Social-media" transform="translate(387.000000, 33.321216)">
                    <g id="instagram" transform="translate(134.000000, 54.000000)">
                        <path d="M41.1006126,20.7225662 C41.1006126,32.0237502 31.9387411,41.1856217 20.6375571,41.1856217 C9.33587001,41.1856217 0.174501554,32.0237502 0.174501554,20.7225662 C0.174501554,9.42087914 9.33587001,0.259510683 20.6375571,0.259510683 C31.9387411,0.259510683 41.1006126,9.42087914 41.1006126,20.7225662" id="Fill-12" fill="#FFFFFF"></path>
                        <path d="M20.6586836,9.32027662 C17.4454391,9.32027662 17.042526,9.33385796 15.7804674,9.39170441 C14.5214269,9.44904784 13.6612753,9.64874384 12.9087685,9.94149718 C12.131111,10.2438077 11.4711585,10.6482299 10.813721,11.3061704 C10.1557805,11.9636078 9.75135841,12.6235604 9.44904784,13.4017208 C9.15629451,14.1542277 8.95659851,15.0138762 8.89875206,16.2734198 C8.84140862,17.5349754 8.82782728,17.9378885 8.82782728,21.1511329 C8.82782728,24.3643774 8.84140862,24.7667875 8.89875206,26.0288461 C8.95659851,27.2878866 9.15629451,28.1480382 9.44904784,28.900545 C9.75135841,29.6787055 10.1557805,30.338658 10.813721,30.9960955 C11.4711585,31.654036 12.131111,32.0584581 12.9087685,32.3607687 C13.6612753,32.653019 14.5214269,32.853218 15.7804674,32.9105615 C17.042526,32.9679049 17.4454391,32.9819892 20.6586836,32.9819892 C23.8714251,32.9819892 24.2743382,32.9679049 25.5363968,32.9105615 C26.7954373,32.853218 27.6555888,32.653019 28.4080957,32.3607687 C29.1862562,32.0584581 29.8457057,31.654036 30.5036462,30.9960955 C31.1610836,30.338658 31.5660088,29.6787055 31.8683194,28.900545 C32.1605697,28.1480382 32.3607687,27.2878866 32.4181121,26.0288461 C32.4754556,24.7667875 32.4890369,24.3643774 32.4890369,21.1511329 C32.4890369,17.9378885 32.4754556,17.5349754 32.4181121,16.2734198 C32.3607687,15.0138762 32.1605697,14.1542277 31.8683194,13.4017208 C31.5660088,12.6235604 31.1610836,11.9636078 30.5036462,11.3061704 C29.8457057,10.6482299 29.1862562,10.2438077 28.4080957,9.94149718 C27.6555888,9.64874384 26.7954373,9.44904784 25.5363968,9.39170441 C24.2743382,9.33385796 23.8714251,9.32027662 20.6586836,9.32027662 M20.6586836,11.452044 C23.8176027,11.452044 24.1913411,11.4641163 25.4393153,11.5209567 C26.5927232,11.5737731 27.2189739,11.7664269 27.6359713,11.9283969 C28.1882792,12.1426803 28.582138,12.3992167 28.9961174,12.8131961 C29.4100968,13.2271755 29.6666332,13.6215373 29.8814196,14.1738452 C30.0433896,14.5903396 30.2360435,15.2170933 30.2883568,16.3705012 C30.3457002,17.6179724 30.3577725,17.9922138 30.3577725,21.1511329 C30.3577725,24.310052 30.3457002,24.6842934 30.2883568,25.9317647 C30.2360435,27.0851726 30.0433896,27.7114232 29.8814196,28.1284207 C29.6666332,28.6807285 29.4100968,29.0745874 28.9961174,29.4890698 C28.582138,29.9030491 28.1882792,30.1590825 27.6359713,30.3738689 C27.2189739,30.535839 26.5927232,30.7284928 25.4393153,30.7813091 C24.1918441,30.8381496 23.8176027,30.8502219 20.6586836,30.8502219 C17.4992615,30.8502219 17.1250201,30.8381496 15.8780519,30.7813091 C14.724644,30.7284928 14.0978903,30.535839 13.6808928,30.3738689 C13.128585,30.1590825 12.7347261,29.9030491 12.3207468,29.4890698 C11.9067674,29.0745874 11.650231,28.6807285 11.4359476,28.1284207 C11.2739775,27.7114232 11.0808207,27.0851726 11.0285074,25.9317647 C10.971667,24.6842934 10.9595947,24.310052 10.9595947,21.1511329 C10.9595947,17.9922138 10.971667,17.6179724 11.0285074,16.3705012 C11.0808207,15.2170933 11.2739775,14.5903396 11.4359476,14.1738452 C11.650231,13.6215373 11.9067674,13.2271755 12.3207468,12.8131961 C12.7347261,12.3992167 13.128585,12.1426803 13.6808928,11.9283969 C14.0978903,11.7664269 14.724644,11.5737731 15.8780519,11.5209567 C17.1255231,11.4641163 17.4997645,11.452044 20.6586836,11.452044" id="Fill-13" fill="#9D344B"></path>
                        <path d="M20.6586836,25.0947517 C18.480639,25.0947517 16.7150648,23.3291775 16.7150648,21.1511329 C16.7150648,18.9730884 18.480639,17.2075142 20.6586836,17.2075142 C22.8367281,17.2075142 24.6023024,18.9730884 24.6023024,21.1511329 C24.6023024,23.3291775 22.8367281,25.0947517 20.6586836,25.0947517 M20.6586836,15.0757468 C17.3030866,15.0757468 14.5832974,17.7960389 14.5832974,21.1511329 C14.5832974,24.506227 17.3030866,27.2260161 20.6586836,27.2260161 C24.0137776,27.2260161 26.7335667,24.506227 26.7335667,21.1511329 C26.7335667,17.7960389 24.0137776,15.0757468 20.6586836,15.0757468" id="Fill-14" fill="#9D344B"></path>
                        <path d="M28.3935083,14.8358098 C28.3935083,15.6200064 27.7577004,16.2553113 26.9740068,16.2553113 C26.1898101,16.2553113 25.5540022,15.6200064 25.5540022,14.8358098 C25.5540022,14.0516131 26.1898101,13.4163082 26.9740068,13.4163082 C27.7577004,13.4163082 28.3935083,14.0516131 28.3935083,14.8358098" id="Fill-15" fill="#9D344B"></path>
                    </g>
                </g>
            </g>
        </g>
    </g>
</svg>