<?xml version="1.0" encoding="UTF-8"?>
<svg width="42px" height="42px" viewBox="0 0 42 42" version="1.1" xmlns="http://www.w3.org/2000/svg" xmlns:xlink="http://www.w3.org/1999/xlink">
    <!-- Generator: Sketch 46.2 (44496) - http://www.bohemiancoding.com/sketch -->
    <title>twitter</title>
    <desc>Created with Sketch.</desc>
    <defs></defs>
    <g id="Welcome" stroke="none" stroke-width="1" fill="none" fill-rule="evenodd">
        <g id="Desktop" transform="translate(-453.000000, -1181.000000)">
            <g id="Footer" transform="translate(0.000000, 1093.710000)">
                <g id="Social-media" transform="translate(387.000000, 33.321216)">
                    <g id="twitter" transform="translate(66.000000, 54.000000)">
                        <path d="M41.0294273,20.7783349 C41.0294273,32.105012 31.8473928,41.2875507 20.5207157,41.2875507 C9.19353447,41.2875507 0.0109958058,32.105012 0.0109958058,20.7783349 C0.0109958058,9.45115373 9.19353447,0.269119216 20.5207157,0.269119216 C31.8473928,0.269119216 41.0294273,9.45115373 41.0294273,20.7783349" id="Fill-3" fill="#FFFFFF"></path>
                        <path d="M10.5295248,29.0256804 C12.621736,30.3672163 15.1071821,31.1501571 17.776642,31.1501571 C26.5543504,31.1501571 31.5136473,23.7361671 31.2151921,17.0859602 C32.1382857,16.4204858 32.9403841,15.5876345 33.5740972,14.6388293 C32.7256173,15.014419 31.8146232,15.2690134 30.8587599,15.3829507 C31.8342849,14.7991481 32.5839519,13.8720213 32.936855,12.7674346 C32.0233402,13.3093929 31.0115166,13.7031319 29.9356662,13.9153779 C29.0725661,12.9963174 27.8439592,12.4220937 26.4837698,12.4220937 C23.4326704,12.4220937 21.1897191,15.2700217 21.8788885,18.2273497 C17.9490604,18.0307322 14.4654026,16.1482463 12.1342256,13.2872104 C10.8955357,15.4126954 11.4914378,18.1930677 13.597261,19.5996386 C12.8218825,19.5754395 12.0923814,19.3621852 11.4551392,19.0082738 C11.4042203,21.1987938 12.9736308,23.2471442 15.2473351,23.7039016 C14.5818607,23.8853947 13.8528637,23.9262306 13.1127755,23.7845652 C13.7132149,25.6640263 15.4595811,27.0297613 17.5291057,27.0680765 C15.5417571,28.6263957 13.0376575,29.322119 10.5295248,29.0256804" id="Fill-4" fill="#9D344B"></path>
                    </g>
                </g>
            </g>
        </g>
    </g>
</svg>